<?xml version="1.0" encoding="UTF-8"?>
<svg xmlns="http://www.w3.org/2000/svg" xmlns:xlink="http://www.w3.org/1999/xlink" version="1.1" id="Layer_1" x="0px" y="0px" viewBox="0 0 4000 4000" style="background: transparent;" xml:space="preserve">
<g>
	
	<g>
		<ellipse style="fill:#EFC7A3;" cx="2018.379" cy="3553.427" rx="960.998" ry="178.435"/>
		<path style="fill:#F9B2B2;" d="M2599.673,3449.196c-25.408,38.312-62.745,77.688-112.187,87.976    c0,0-219.507,24.021-281.033-40.289c-81.295-84.972-43.377-244.301-43.377-244.301s15.609-49.176,50.639-104.825    c-1.729,4.035-69.795,168.146,148.414,191.471C2468.73,3350.622,2547.127,3400.552,2599.673,3449.196z"/>
		<path style="fill:#9DA3B2;" d="M2599.673,3449.196c-25.408,38.312-62.745,77.688-112.187,87.976    c0,0-219.507,24.021-281.033-40.289c-81.295-84.972-43.377-244.301-43.377-244.301s15.609-49.176,50.639-104.825    c-1.729,4.035-69.795,168.146,148.414,191.471C2468.73,3350.622,2547.127,3400.552,2599.673,3449.196z"/>
		<g>
			<path style="fill:#F87B38;" d="M2170.939,3174.622c78.009,95.696,646.447,579.577,1202.205,23.156     c416.999-417.497,257.659-1216.833-195.838-1300.832c-125.489-23.244-276.503,41.578-338.213,204.829     c-38.628,102.187-30.049,217.663-9.881,362.527c62.594,449.616-210.887,651.183-538.944,504.178"/>
			<path style="fill:#F87B38;" d="M2170.946,3174.636c0.711,0.906,1.489,1.832,2.356,2.821     c56.294,66.426,315.192,289.154,641.141,283.398c87.385-1.558,179.517-19.492,273.904-61.254     c70.125-31.075,141.453-75.224,212.941-135.638c23.96-20.208,47.888-42.246,71.848-66.205     c417.012-417.484,257.65-1216.814-195.855-1300.824c-125.443-23.224-276.468,41.583-338.2,204.848     c-38.623,102.202-30.039,217.664-9.87,362.502c13.004,93.27,11.509,175.913-1.975,246.974c-0.433,2.528-0.953,5.102-1.496,7.633     c-2.582,12.695-5.552,24.983-8.885,36.906c-0.637,2.357-1.297,4.672-2.044,7.031c-6.92,23.479-15.362,45.481-25.155,65.801     c-0.747,1.633-1.559,3.245-2.329,4.834c-0.833,1.679-1.646,3.292-2.482,4.861c-1.083,2.15-2.214,4.213-3.278,6.295     c-5.292,9.841-10.928,19.251-16.883,28.273c-1.435,2.226-2.916,4.366-4.397,6.505c-1.268,1.913-2.625,3.761-3.939,5.587     c-0.719,1.058-1.505,2.096-2.291,3.134c-5.493,7.486-11.24,14.605-17.194,21.443c-29.646,33.899-64.86,60.042-104.464,77.909     c-5.379,2.386-10.784,4.62-16.261,6.722c-5.235,2.03-10.52,3.862-15.918,5.587c-2.074,0.723-4.129,1.379-6.23,1.948     c-2.775,0.875-5.599,1.664-8.488,2.434c-2.275,0.662-4.596,1.239-6.918,1.814c-1.182,0.3-2.365,0.6-3.571,0.855     c-1.38,0.349-2.783,0.656-4.142,0.938c-2.388,0.556-4.757,1.044-7.192,1.513c-0.855,0.18-1.71,0.36-2.589,0.495     c-3.05,0.576-6.166,1.131-9.262,1.619c-3.49,0.587-6.961,1.109-10.479,1.543c-0.154,0.027-0.35,0.077-0.57,0.083     c-3.254,0.405-6.506,0.809-9.763,1.104c-0.351,0.077-0.724,0.109-1.122,0.099c-3.564,0.348-7.151,0.652-10.718,0.889     c-3.281,0.251-6.563,0.392-9.846,0.533c-0.595,0.039-1.146,0.055-1.763,0.052c-3.57,0.127-7.164,0.21-10.781,0.251     c-3.77,0.067-7.544,0.023-11.342-0.063c-10.994-0.25-22.154-0.915-33.485-2.104c-2.965-0.309-5.887-0.643-8.833-1.019     c-2.678-0.296-5.336-0.659-8.017-1.066c-2.591-0.343-5.163-0.752-7.734-1.162c-0.465-0.031-0.909-0.127-1.419-0.245     c-3.68-0.598-7.384-1.239-11.11-1.924c-3.373-0.651-6.789-1.278-10.231-2.059c-2.24-0.42-4.485-0.949-6.795-1.499     c-2.885-0.577-5.774-1.264-8.709-2.038c-3.576-0.821-7.199-1.729-10.824-2.748c-3.068-0.814-6.161-1.672-9.276-2.573     c-1.956-0.516-3.96-1.119-5.964-1.722c-1.579-0.439-3.115-0.901-4.631-1.43c-2.604-0.783-5.232-1.611-7.816-2.461     c-9.198-2.951-18.407-6.231-27.711-9.796c-2.901-1.128-5.846-2.232-8.727-3.428c-7.969-3.162-15.922-6.502-23.904-10.106     L2170.946,3174.636z"/>
			<path style="fill:#F87B38;" d="M2170.946,3174.636c0.711,0.906,1.489,1.832,2.356,2.821     c56.294,66.426,315.192,289.154,641.141,283.398c87.385-1.558,179.517-19.492,273.904-61.254     c70.125-31.075,141.453-75.224,212.941-135.638c23.96-20.208,47.888-42.246,71.848-66.205     c155.927-156.11,231.279-365.599,240.739-571.14c0.108-1.57,0.196-3.072,0.261-4.619l-0.023-0.043     c14.21-342.443-154.179-672.694-436.831-725.022c-125.443-23.224-276.468,41.583-338.2,204.848     c-38.623,102.202-30.039,217.664-9.87,362.502c13.004,93.27,11.509,175.913-1.975,246.974c-0.433,2.528-0.953,5.102-1.496,7.633     c-2.582,12.695-5.552,24.983-8.885,36.906c-0.637,2.357-1.297,4.672-2.044,7.031c-6.92,23.479-15.362,45.481-25.155,65.801     c-0.747,1.633-1.559,3.245-2.329,4.834c-0.833,1.679-1.646,3.292-2.482,4.861c-1.083,2.15-2.214,4.213-3.278,6.295     c-5.292,9.841-10.928,19.251-16.883,28.273c-1.435,2.226-2.916,4.366-4.397,6.505c-1.268,1.913-2.625,3.761-3.939,5.587     c-0.719,1.058-1.505,2.096-2.291,3.134c-5.493,7.486-11.24,14.605-17.194,21.443c-27.982,31.997-60.953,57.103-97.892,74.825     c-2.175,1.057-4.373,2.071-6.572,3.084c-2.723,1.183-5.403,2.343-8.105,3.459c-5.449,2.257-10.925,4.359-16.537,6.311     c-2.489,0.89-5.001,1.736-7.537,2.539c-0.174,0.094-0.391,0.21-0.611,0.216c-1.179,0.41-2.339,0.753-3.498,1.096     c-3.781,1.192-7.61,2.297-11.485,3.316c-1.99,0.566-4.029,1.046-6.043,1.568c-2.562,0.65-5.104,1.231-7.713,1.794     c-2.388,0.556-4.757,1.044-7.192,1.513c-0.855,0.18-1.71,0.36-2.589,0.495c-3.05,0.576-6.166,1.131-9.262,1.619     c-7.201,1.182-14.477,2.125-21.935,2.829c-3.564,0.348-7.151,0.652-10.718,0.889c-1.63,0.092-3.303,0.208-4.933,0.3     c-2.201,0.176-4.405,0.24-6.676,0.285c-3.57,0.127-7.164,0.21-10.781,0.251c-1.676,0.005-3.352,0.01-5.029,0.015     c-5.163-0.024-10.373-0.136-15.609-0.401c-1.767-0.058-3.557-0.16-5.37-0.305c-1.235-0.008-2.518-0.102-3.801-0.197     c-2.187-0.112-4.355-0.291-6.545-0.513c-11.278-0.881-22.792-2.307-34.475-4.258c-3.68-0.598-7.384-1.239-11.11-1.924     c-1.663-0.282-3.35-0.607-5.059-0.976c-1.753-0.345-3.463-0.714-5.172-1.083c-5.149-1.04-10.302-2.19-15.504-3.537     c-1.8-0.432-3.576-0.821-5.399-1.297c-1.8-0.432-3.579-0.932-5.426-1.45c-3.068-0.814-6.161-1.672-9.276-2.573     c-1.956-0.516-3.96-1.119-5.964-1.722c-8.725-2.589-17.435-5.465-26.263-8.559c-3.388-1.202-6.734-2.427-10.103-3.696     c-1.248-0.448-2.52-0.94-3.792-1.433c-2.901-1.128-5.846-2.232-8.727-3.428c-7.969-3.162-15.922-6.502-23.904-10.106     L2170.946,3174.636z"/>
			<path style="fill:#EA5A1B;" d="M3614.063,2621.758c-0.065,1.546-0.126,3.203-0.188,4.86c0.108-1.57,0.196-3.072,0.261-4.619     l-0.023-0.043C3614.066,2621.869,3614.042,2621.825,3614.063,2621.758z"/>
			<path style="fill:#EA5A1B;" d="M2173.302,3177.457c56.294,66.426,315.192,289.154,641.141,283.398     c87.385-1.558,179.517-19.492,273.904-61.254c70.125-31.075,141.453-75.224,212.941-135.638     c23.96-20.208,47.888-42.246,71.848-66.205c155.927-156.11,231.279-365.599,240.739-571.14     c-7.351,127.27-165.679,594.567-607.919,672.159c-166.26,29.162-204.088-291.364-366.986-314.389l-0.067-0.02     c-2.175,1.057-4.373,2.07-6.528,3.06c-2.656,1.203-5.38,2.386-8.082,3.503c-5.449,2.257-10.925,4.359-16.537,6.311     c-2.466,0.933-4.978,1.78-7.537,2.539c-0.174,0.094-0.391,0.21-0.611,0.216c-1.136,0.387-2.272,0.773-3.498,1.096     c-3.781,1.192-7.61,2.297-11.485,3.316c-1.99,0.566-4.005,1.089-6.043,1.568c-2.562,0.65-5.104,1.231-7.713,1.794     c-2.388,0.556-4.757,1.044-7.192,1.513c-0.855,0.18-1.71,0.36-2.589,0.495c-3.027,0.619-6.142,1.174-9.262,1.619     c-7.201,1.182-14.477,2.125-21.935,2.829c-3.541,0.391-7.084,0.672-10.718,0.889c-1.607,0.136-3.281,0.251-4.933,0.3     c-2.201,0.176-4.405,0.24-6.676,0.285c-3.547,0.171-7.14,0.254-10.781,0.251c-1.653,0.048-3.329,0.054-5.029,0.015     c-5.163-0.024-10.373-0.136-15.609-0.401c-1.767-0.058-3.557-0.16-5.37-0.305c-1.235-0.008-2.518-0.102-3.801-0.197     c-2.143-0.136-4.311-0.314-6.545-0.513c-11.278-0.881-22.792-2.307-34.475-4.258c-3.657-0.554-7.36-1.196-11.11-1.924     c-1.663-0.282-3.35-0.607-5.059-0.976c-1.687-0.325-3.439-0.671-5.172-1.083c-5.149-1.04-10.302-2.19-15.504-3.537     c-1.777-0.389-3.576-0.821-5.399-1.297c-1.8-0.432-3.579-0.932-5.426-1.45c-3.068-0.814-6.204-1.648-9.276-2.573     c-1.98-0.56-3.96-1.119-5.964-1.722c-8.725-2.589-17.435-5.465-26.263-8.559c-3.322-1.181-6.734-2.427-10.103-3.696     c-1.248-0.448-2.52-0.94-3.792-1.433c-2.901-1.128-5.846-2.232-8.727-3.428c-7.969-3.162-15.922-6.502-23.904-10.106     L2173.302,3177.457z"/>
			<path style="fill:#8E381A;" d="M3476.165,2976.645c4.289,25.796,7.065,52.63,8.193,80.461c2.465-3.955,4.907-7.954,7.281-11.973     c2.354-3.952,4.665-7.881,6.91-11.83c0.84-1.459,1.723-2.941,2.539-4.443c3.271-5.789,6.476-11.597,9.613-17.425     c14.221-26.562,26.854-53.783,38.06-81.58c2.119-5.225,4.171-10.469,6.179-15.691c0.388-1.048,0.82-2.12,1.229-3.235     c4.438-11.845,8.634-23.728,12.561-35.691c2.066-6.26,4.022-12.517,5.935-18.751c3.657-12.153,7.114-24.367,10.285-36.594     c0.442-1.469,0.774-2.935,1.149-4.424c2.902-11.579,5.604-23.219,8.086-34.854c2.035-9.546,3.894-19.109,5.663-28.736     c0.043-0.023-0.023-0.043-0.023-0.043c1.705-9.537,3.296-19.181,4.733-28.798c1.895-12.83,3.546-25.696,4.91-38.577     c1.299-12.062,2.379-24.117,3.171-36.186c0.108-1.57,0.192-3.183,0.301-4.752c0.081-0.995,0.118-1.967,0.199-2.962l-0.023-0.043     c0.247-3.603,0.427-7.227,0.564-10.826c-0.26,3.162-0.58,6.525-0.984,10.045     C3604.85,2708.27,3563.683,2844.698,3476.165,2976.645z"/>
			<path style="fill:#8E381A;" d="M3088.347,3399.601c70.125-31.075,141.453-75.224,212.941-135.638     c2.444-30.142,3.174-63.058,1.283-97.308c-64.848,50.687-141.35,92.187-230.847,117.214     C3080.674,3324.067,3085.757,3363.319,3088.347,3399.601z"/>
			<path style="fill:#AA512B;" d="M3088.621,3403.684c70.514-33.519,141.783-79.119,212.683-139.514     c12.238-150.927-18.735-370.533-196.25-490.428c-71.505-48.331-182.699-61.173-277.787-62.473     c-15.49,81.965-46.937,148.547-90.413,198.3C3012.059,2992.462,3077.123,3233.089,3088.621,3403.684z"/>
			<path style="fill:#9B4635;" d="M3088.347,3399.601c70.125-31.075,141.453-75.224,212.941-135.638     c12.258-150.955-18.822-370.372-196.241-490.218c-71.491-48.351-182.686-61.205-277.811-62.487     c-0.476,2.551-0.996,5.125-1.496,7.633c-2.582,12.695-5.552,24.983-8.885,36.906c-0.68,2.381-1.34,4.695-2.044,7.031     c-6.92,23.479-15.362,45.481-25.155,65.801c-0.747,1.633-1.559,3.245-2.329,4.834c-0.833,1.679-1.646,3.292-2.482,4.861     c-1.083,2.15-2.171,4.19-3.278,6.295c-5.292,9.841-10.928,19.251-16.883,28.273c-1.435,2.226-2.916,4.366-4.397,6.505     c-1.268,1.913-2.625,3.761-3.939,5.587c-0.762,1.081-1.548,2.119-2.291,3.134c-5.493,7.486-11.24,14.605-17.194,21.443     C3009.849,2991.827,3076.097,3229.292,3088.347,3399.601z"/>
			<path style="fill:#9B4635;" d="M3484.371,3057.081c78.86-127.027,120.089-272.396,128.777-416.546     c-62.472-123.674-238.725-323.697-524.566-284.189c-84.372,11.642-182.082,56.843-258.994,110.786     c8.303,60.549,10.409,116.571,7.119,167.801C3153.684,2484.194,3468.537,2676.911,3484.371,3057.081z"/>
			<path style="fill:#873A2D;" d="M3088.347,3399.601c70.125-31.075,141.453-75.224,212.941-135.638     c2.444-30.142,3.174-63.058,1.283-97.308c-64.848,50.687-141.35,92.187-230.847,117.214     C3080.674,3324.067,3085.757,3363.319,3088.347,3399.601z"/>
			<path style="fill:#873A2D;" d="M3484.357,3057.106c2.465-3.955,4.907-7.954,7.281-11.973c2.354-3.952,4.665-7.881,6.91-11.83     c0.84-1.459,1.723-2.941,2.539-4.443c3.271-5.789,6.476-11.597,9.613-17.425c14.221-26.562,26.854-53.783,38.06-81.58     c2.119-5.225,4.171-10.469,6.179-15.691c0.388-1.048,0.82-2.12,1.229-3.235c4.462-11.802,8.657-23.685,12.561-35.691     c2.066-6.26,4.022-12.517,5.935-18.751c3.724-12.133,7.137-24.323,10.285-36.594c0.442-1.469,0.774-2.935,1.149-4.424     c2.969-11.559,5.671-23.199,8.086-34.854c2.079-9.569,3.937-19.133,5.663-28.736c0.043-0.023-0.023-0.043-0.023-0.043     c1.792-9.583,3.339-19.204,4.733-28.798c1.938-12.853,3.59-25.72,4.91-38.577c1.299-12.062,2.379-24.117,3.171-36.186     c0.108-1.57,0.192-3.183,0.301-4.752c0.081-0.995,0.118-1.967,0.199-2.962l-0.443-0.825     c-7.845,68.535-49.012,204.963-136.53,336.91C3480.454,3002.441,3483.229,3029.275,3484.357,3057.106z"/>
			<path style="fill:#873A2D;" d="M2173.302,3177.457c50.771,59.909,266.344,246.956,547.273,278.858     c153.111-41.681,62.928-333.066-88.177-468.844l-0.023-0.043c-0.851,0.385-1.724,0.742-2.581,1.12     c-4.526,1.964-9.058,3.88-13.657,5.646c-5.235,2.03-10.52,3.862-15.918,5.587c-2.031,0.7-4.085,1.355-6.23,1.948     c-2.775,0.875-5.599,1.664-8.488,2.434c-2.275,0.662-4.596,1.239-6.918,1.814c-1.182,0.3-2.365,0.6-3.571,0.855     c-1.38,0.349-2.783,0.656-4.142,0.938c-2.388,0.556-4.757,1.044-7.192,1.513c-0.855,0.18-1.71,0.36-2.589,0.495     c-3.027,0.619-6.142,1.174-9.262,1.619c-3.424,0.608-6.961,1.109-10.479,1.543c-0.154,0.027-0.35,0.077-0.57,0.083     c-3.23,0.448-6.463,0.786-9.763,1.104c-0.351,0.077-0.724,0.109-1.122,0.099c-3.541,0.391-7.084,0.672-10.718,0.889     c-3.237,0.228-6.539,0.436-9.846,0.533c-0.595,0.039-1.146,0.055-1.763,0.052c-3.547,0.171-7.14,0.254-10.781,0.251     c-3.77,0.067-7.544,0.023-11.342-0.063c-10.994-0.25-22.154-0.915-33.485-2.104c-2.899-0.289-5.864-0.599-8.833-1.019     c-2.678-0.296-5.336-0.659-8.017-1.066c-2.568-0.299-5.139-0.708-7.734-1.162c-0.465-0.031-0.909-0.127-1.419-0.245     c-3.657-0.554-7.36-1.196-11.11-1.924c-3.35-0.607-6.789-1.278-10.231-2.059c-2.24-0.42-4.528-0.926-6.795-1.499     c-2.885-0.577-5.774-1.264-8.709-2.038c-3.576-0.821-7.199-1.729-10.824-2.748c-3.068-0.814-6.204-1.648-9.276-2.573     c-1.98-0.56-3.96-1.119-5.964-1.722c-1.579-0.439-3.115-0.901-4.631-1.43c-2.604-0.783-5.232-1.611-7.816-2.461     c-9.198-2.951-18.407-6.231-27.711-9.796c-2.901-1.128-5.846-2.232-8.727-3.428c-7.969-3.162-15.922-6.502-23.904-10.106     L2173.302,3177.457z"/>
			<path style="opacity:0.3;fill:#FFFFFF;" d="M3128.139,2310.953c64.088,156.82-16.726,458.857-151.017,451.87     c-108.777-5.659-40.126-138.818-77.819-334.219C2859.504,2222.278,3064.051,2154.133,3128.139,2310.953z"/>
			<path style="fill:#9B4635;" d="M2812.813,2238.014c266.038-175.929,617.73-113.277,772.272,106.989     c-59.163-227.587-203.681-410.25-407.803-448.07c-125.454-23.215-276.468,41.609-338.192,204.852     C2822.969,2144.474,2815.071,2189.495,2812.813,2238.014z"/>
			
				<path style="fill:none;stroke:#512717;stroke-width:31.9364;stroke-linecap:round;stroke-linejoin:round;stroke-miterlimit:10;" d="     M2170.939,3174.622c78.009,95.696,646.447,579.577,1202.205,23.156c416.999-417.497,257.659-1216.833-195.838-1300.832     c-125.489-23.244-276.503,41.578-338.213,204.829c-38.628,102.187-30.049,217.663-9.881,362.527     c62.594,449.616-210.887,651.183-538.944,504.178"/>
		</g>
		<g>
			<path style="fill:#F87B38;" d="M957.522,2098.88c8.454,522.724,526.217,572.126,795.241,425.506     c180.048-150.011,439.504-264.921,7.349-312.789c0,0-229.143,64.342-372.857,25.361     c-72.052-19.544-137.139-72.796-158.81-149.819L957.522,2098.88z"/>
			<path style="fill:#EA5A1B;" d="M1194.697,2259.031c51.051-14.928,65.762-64.445,68.852-102.8     c-9.675-12.423-18.019-26.001-24.692-40.664c-17.738,6.196-39.463,13.839-39.463,13.839s-55.419,122.124-163.662,97.93     C1035.731,2227.337,1101.545,2286.271,1194.697,2259.031z"/>
			<path style="fill:#FFFEFF;" d="M1241.662,2131.755c-11.492-17.157-7.356-23.785-13.218-44.617l-270.922,11.741     c0.537,33.195,3.147,64.461,7.598,93.909l46.73,51.26C1049.574,2271.185,1253.873,2271.185,1241.662,2131.755z"/>
			<path style="fill:#FFE4D2;" d="M1241.662,2131.756c-3.855-5.755-5.932-10.32-7.238-14.639     c-16.726,5.85-35.031,12.29-35.031,12.29s-55.419,122.124-163.662,97.93c0,0,21.418,19.145,57.076,30.567     C1163.28,2255.128,1249.73,2223.883,1241.662,2131.756z"/>
			<path style="fill:#EA5A1B;" d="M1710.853,2440.726c-117.743,32.936-306.412,155.246-582.163,51.118     c177.205,139.953,451.698,126.487,624.073,32.541c4.572-3.81,9.198-7.595,13.86-11.359L1710.853,2440.726z"/>
			<path style="fill:#EA5A1B;" d="M1760.111,2211.596c0,0-114.121,32.039-231.8,37.199     c116.342,62.037,287.621,84.148,457.109,81.813C2019.84,2276.693,1977.426,2235.667,1760.111,2211.596z"/>
			<path style="fill:none;stroke:#512717;stroke-width:31.9364;stroke-linecap:round;stroke-miterlimit:10;" d="M957.522,2098.88     c8.454,522.724,526.217,572.126,795.241,425.506c180.048-150.011,439.504-264.921,7.349-312.789     c0,0-229.143,64.342-372.857,25.361c-72.052-19.544-137.139-72.796-158.81-149.819"/>
		</g>
		<g>
			<path style="fill:#FFFFFF;" d="M1238.682,3479.417c86.755,15.462,306.052-25.031,306.052-25.031s173.691-0.977,388.353,26.779     c0,0-148.498-456.355-165.764-501.312c-98.091-123.804-379.035-45.021-493.698,45.025     c-103.199-155.127-265.603-84.734-288.774,12.133C948.715,3166.907,1072.687,3447.452,1238.682,3479.417z"/>
			<path style="fill:#F87B38;" d="M1933.073,3481.167c-214.661-27.758-388.352-26.783-388.352-26.783     s-219.273,40.485-306.051,25.053c-49.043-9.445-94.449-40.618-133.116-83.231c-92.188-101.456-146.153-267.696-120.7-359.174     c23.147-96.888,185.573-167.304,288.758-12.15c81.634-64.119,247.564-122.518,371.723-106.156     c50.284,6.607,93.74,25.453,121.986,61.104C1784.57,3024.794,1933.073,3481.167,1933.073,3481.167z"/>
			<path style="fill:#EA5A1B;" d="M1933.073,3481.167c-214.661-27.758-388.352-26.783-388.352-26.783     s-219.273,40.485-306.051,25.053c-49.043-9.445-94.449-40.618-133.116-83.231c19.998,5.543,43.101,10.155,68.952,12.504     c114.537,10.332,155.909-137.461,155.909-137.461s39.908,158.879,176.66,72.411c94.095-59.508,76.846-267.518,124.47-396.111     c4.035-10.908,8.647-20.486,13.79-28.823c50.284,6.607,93.74,25.453,121.986,61.104     C1784.57,3024.794,1933.073,3481.167,1933.073,3481.167z"/>
			<path style="fill:#F9D3B7;" d="M1262.314,3484.173c-8.647-0.576-16.584-1.463-23.635-2.704     c-49.043-9.444-94.449-40.618-133.116-83.231c19.998,5.543,43.101,10.155,68.953,12.505     c114.536,10.331,155.908-137.462,155.908-137.462s0.887,3.547,2.882,9.267     C1340.889,3383.826,1325.103,3460.938,1262.314,3484.173z"/>
			<path style="fill:#FFFEFF;" d="M1266.704,3482.4c-10.332-0.533-19.777-1.507-28.025-2.971     c-49.043-9.446-94.449-40.618-133.116-83.231c-92.188-101.456-146.153-267.696-120.7-359.174     c23.147-96.889,185.573-167.304,288.758-12.15c2.217-1.73,4.479-3.459,6.829-5.233c16.274,41.638,28.956,90.104,37.026,147.261     C1345.678,3319.619,1347.363,3448.123,1266.704,3482.4z"/>
			<path style="fill:#FFE4D2;" d="M1262.314,3484.173c-8.647-0.576-16.584-1.463-23.635-2.704     c-49.043-9.444-94.449-40.618-133.116-83.231c19.998,5.543,43.101,10.155,68.953,12.505     c114.536,10.331,155.908-137.462,155.908-137.462s0.887,3.547,2.882,9.267     C1340.889,3383.826,1325.103,3460.938,1262.314,3484.173z"/>
			<path style="opacity:0.3;fill:#FFFFFF;" d="M1933.09,3481.181c-3.916-0.507-7.833-1.013-11.748-1.474     c-35.427-108.721-139.679-428.11-154.005-465.333c-28.24-35.656-71.682-54.499-121.988-61.086     c-124.154-16.354-290.091,42.014-371.724,106.141c-103.146-155.157-265.582-84.719-288.754,12.162     c-2.949,10.688-4.837,22.343-5.712,34.827c-1.613-25.752,0.138-49.339,5.712-69.378     c23.172-96.881,185.562-167.319,288.754-12.162c81.632-64.126,247.57-122.495,371.724-106.14     c50.306,6.588,93.748,25.429,121.988,61.086C1784.613,3024.786,1933.09,3481.181,1933.09,3481.181z"/>
			
				<ellipse transform="matrix(0.8986 -0.4387 0.4387 0.8986 -1333.3495 829.6111)" style="fill:#FFABAB;" cx="1128.668" cy="3300.277" rx="69.146" ry="135.245"/>
			<path style="fill:#FC9090;" d="M1201.827,3410.155c-3.769,5.055-8.381,9.001-13.835,11.662     c-18.89,9.223-43.81,1.02-67.888-19.377c16.052,3.725,33.834,6.74,53.078,8.469     C1183.292,3411.84,1192.87,3411.485,1201.827,3410.155z"/>
			
				<ellipse transform="matrix(0.9523 -0.305 0.305 0.9523 -895.4755 489.1176)" style="fill:#FFABAB;" cx="1117.582" cy="3110.344" rx="25.998" ry="50.851"/>
			
				<ellipse transform="matrix(0.9523 -0.305 0.305 0.9523 -897.4874 462.9079)" style="fill:#FFABAB;" cx="1032.705" cy="3103.693" rx="32.189" ry="62.959"/>
			<path style="fill:none;stroke:#512717;stroke-width:31.9364;stroke-miterlimit:10;" d="M1238.682,3479.417     c86.755,15.462,306.052-25.031,306.052-25.031s173.691-0.977,388.353,26.779c0,0-148.498-456.355-165.764-501.312     c-98.091-123.804-379.035-45.021-493.698,45.025c-103.199-155.127-265.603-84.734-288.774,12.133     C948.715,3166.907,1072.687,3447.452,1238.682,3479.417z"/>
			<path style="fill:#512717;" d="M1287.939,3017.8c16.782,48.261,27.687,98.151,29.552,149.106     c-6.049-24.141-14.34-47.517-24.377-70.188c-9.77-22.129-21.241-44.623-33.885-64.893     C1247.637,3011.391,1278.902,2996.051,1287.939,3017.8L1287.939,3017.8z"/>
		</g>
		<path style="fill:#FFFFFF;" d="M2163.098,3252.563c0,0,81.202-255.573,288.388-261.282    c193.516-5.333,249.132,175.627,189.706,375.603c0,0-50.283,148.753-153.707,170.279c0,0-206.724-33.869-279.113-85.602    S2163.098,3252.563,2163.098,3252.563z"/>
		<g>
			<path style="fill:#F87B38;" d="M1839.061,2154.631c0,0,342.076-194.059,539.161,27.377     c243.28,273.338,462.974,1092.283,165.979,1338.107c-85.9,53.232-150.969,0.332-317.023,6.153     c-282.205,6.372-488.765-35.666-571.016-153.051c-233.34-387.682,29.791-730.949,40.816-962.958L1839.061,2154.631z"/>
			<path style="fill:#EA5A1B;" d="M2570.806,3146.96c1.382-216.087-157.34-174.526-117.473-470.294     c-30.008,92.729-42.369,230.486-201.819,322.992c-137.78,79.934-554.338,127.796-686.58-52.442     c-14.971,132.782,0.984,276.065,91.228,426c82.251,117.386,288.811,159.423,571.016,153.051     c166.055-5.821,231.123,47.079,317.023-6.154c29.259-24.218,53.431-54.07,73.132-88.343     C2595.968,3292.31,2570.806,3146.96,2570.806,3146.96z"/>
			<path style="fill:#EA5A1B;" d="M2378.222,2182.008c-197.086-221.436-539.161-27.377-539.161-27.377l-89.603,161.209     c237.399,36.379,531.036,1.45,690.122-52.686C2419.498,2232.633,2398.952,2205.299,2378.222,2182.008z"/>
			<path style="fill:#FFFEFF;" d="M1907.162,2341.556c-159.215,33.01-236.003,244.119-285.618,360.735     c-60.959,193.928-114.384,423.366,34.618,670.926c80.719,115.199,281.214,157.796,555.381,153.322     c145.544-67.458,189.827-235.873,165.416-535.383C2344.407,2591.761,2178.234,2285.355,1907.162,2341.556z"/>
			<path style="fill:#FFE4D2;" d="M2211.543,3526.539c145.544-67.458,189.827-235.873,165.416-535.383     c-2.602-31.921-6.067-63.239-10.361-93.834c-26.457,36.849-62.841,72.027-115.084,102.336     c-137.789,79.939-554.389,127.802-686.605-52.475c-14.972,132.788,1.001,276.084,91.253,426.033     C1736.881,3488.417,1937.376,3531.013,2211.543,3526.539z"/>
			<path style="fill:#512717;" d="M1831.182,2140.742c149.985-77.803,349.249-124.087,499.07-22.421     c122.938,86.64,215.769,295.002,266.951,434.245c96.029,264.49,199.952,772.616-43.382,980.877     c-18.797,11.828-40.347,20.84-62.844,24.56c-22.094,3.811-43.96,2.893-64.606,0.841c-40.556-4.293-79.31-11.544-119.508-14.121     c-39.959-3.287-78.993-1.017-119.358-0.696c-81.382,0.668-162.875-2.549-243.657-14.441     c-101.776-16.086-209.87-44.218-283.253-122.009c-14.863-15.638-26.322-34.657-36.218-53.437     c-81.968-144.313-99.819-319.699-65.311-480.333c15.856-79.831,40.304-157.567,67.21-233.956     c26.276-76.094,57.061-149.797,70.703-229.591c2.44,40.566-3.652,81.487-11.968,121.194     c-17.065,79.02-43.411,155.316-65.217,232.684c-57.221,192.014-64.279,393.845,36.495,572.624     c33.745,70.389,105.849,108.444,177.977,131.463c113.629,34.902,234.554,41.246,353.031,41.369     c40.135-0.167,81.696-2.102,122.091,1.517c40.202,2.889,80.816,10.315,120.295,14.708c19.331,2.002,38.113,2.673,55.8-0.347     c17.706-2.894,34.364-9.67,50.083-19.294l-1.816,1.306c30.737-25.37,55.706-57.588,74.812-93.23     c148.728-291.327,7.886-805.828-144.013-1079.167c-30.427-53.941-64.559-106.558-106.714-151.59     c-41.599-43.664-96.599-73.34-155.816-84.659c-100.723-19.451-205.841,4.796-299.63,43.399     c-18.907,7.936-38.093,16.794-55.447,26.282L1831.182,2140.742L1831.182,2140.742z"/>
		</g>
		<g>
			<path style="fill:#F87B38;" d="M2641.177,3366.896c0,0-13.701,40.485-41.504,82.3c-25.408,38.312-62.745,77.688-112.187,87.976     c0,0-206.725-33.878-279.135-85.626c-72.367-51.703-45.274-198.965-45.274-198.965s15.609-49.176,50.639-104.825     c0.044-0.044,0.044-0.089,0.044-0.089c44.83-71.258,121.453-153.203,237.72-156.396     C2644.991,2985.95,2700.597,3166.912,2641.177,3366.896z"/>
			<path style="opacity:0.3;fill:#FFFFFF;" d="M2641.237,3366.908c0,0-3.594,10.596-10.781,26.535     c41.6-145.897,21.606-280.646-68.917-338.876c-3.732,17.275-43.811,25.982-90.662,19.349     c-46.299-6.542-82.186-25.614-81.725-43.166c-88.865,21.099-149.906,89.372-188.004,149.951c0,0,0,0.046-0.046,0.092     c-17.229,27.411-29.76,53.208-38.052,72.373c0.046-0.368,0.092-0.553,0.092-0.553s15.617-49.201,50.629-104.851     c0.046-0.046,0.046-0.092,0.046-0.092c44.824-71.221,121.436-153.176,237.71-156.401     C2645.061,2985.972,2700.664,3166.927,2641.237,3366.908z"/>
			<path style="fill:#EA5A1B;" d="M2599.673,3449.196c-25.408,38.312-62.745,77.688-112.187,87.976     c0,0-219.507,24.021-281.033-40.289c-81.295-84.972-43.377-244.301-43.377-244.301s15.609-49.176,50.639-104.825     c-1.729,4.035-69.795,168.146,148.414,191.471C2468.73,3350.622,2547.127,3400.552,2599.673,3449.196z"/>
			<path style="fill:#512717;" d="M2163.098,3252.563c29.164-118.303,108.766-238.062,232.823-270.723     c75.01-18.753,163.135-7.187,219.15,50.135c83.927,88.694,73.837,225.573,42.951,334.255     c-10.605,33.253-26.844,63.99-45.971,93.22c-14.086,20.907-30.501,40.744-50.495,57.555     c-19.893,16.724-44.031,30.238-70.817,35.791l-6.506-31.266c71.136-16.499,115.406-92.962,140.759-156.768     c29.232-98.318,41.082-228.407-35.035-307.818c-47.459-47.655-122.517-56.212-185.982-42.336     C2288.455,3042.754,2213.085,3150.583,2163.098,3252.563L2163.098,3252.563z"/>
		</g>
		<g>
			<path style="fill:#FFFFFF;" d="M2272.829,2890.459c0,9.503-3.46,18.867-10.148,27.908     c-55.815,75.743-334.29,133.356-669.549,133.356c-335.305,0-613.964-57.613-669.595-133.402     c-6.689-9.041-10.148-18.359-10.148-27.862c0-89.073,304.307-161.217,679.743-161.217S2272.829,2801.385,2272.829,2890.459z"/>
			<path style="fill:none;stroke:#512717;stroke-width:23.9523;stroke-linecap:round;stroke-miterlimit:10;" d="M2272.829,2890.459     c0,9.503-3.46,18.867-10.148,27.908c-55.815,75.743-334.29,133.356-669.549,133.356c-335.305,0-613.964-57.613-669.595-133.402     c-6.689-9.041-10.148-18.359-10.148-27.862c0-89.073,304.307-161.217,679.743-161.217S2272.829,2801.385,2272.829,2890.459z"/>
		</g>
		<g>
			<path style="fill:#FFFEFF;" d="M2294.209,3615.971c-65.956-29.797-130.434-109.434-108.222-245.394     c29.888-182.948,138.427-315.411,275.45-283c144.528,34.186,200.853,162.286,127.738,344.066     C2537.188,3560.891,2439.487,3681.603,2294.209,3615.971z"/>
			<path style="opacity:0.5;fill:#FFFFFF;" d="M2604.036,3389.707c28.426-138.368-30.715-234.073-152.651-262.907     c-118.961-28.163-216.489,67.95-259.61,213.55c36.362-167.069,140.356-283.355,269.658-252.75     C2594.572,3119.089,2652.86,3230.263,2604.036,3389.707z"/>
			<path style="fill:#FFE4D2;" d="M2310.24,3573.009c-24.14-11.625-101.196-60.047-79.138-195.06     c3.696-22.627,8.7-44.357,14.862-64.903c22.123-73.764-15.177,80.446,129.01,120.232s223.639-147.6,171.791-18.693     c-34.966,86.934-81.858,145.913-132.037,166.074c-31.219,12.54-64.481,10.465-101.697-6.346     C2312.098,3573.894,2311.169,3573.457,2310.24,3573.009z"/>
			<path style="fill:#F9D3B7;" d="M2327.459,3566.319c-57.86-21.977-84.381-93.653-59.159-160.149     c4.585-12.049,10.513-23.096,17.543-32.953c16.962,24.201,44.258,47.696,89.136,60.073c43.934,12.125,81.89,3.157,111.91-11.561     c1.942,20.622-0.819,42.58-8.924,63.943C2452.743,3552.168,2385.381,3588.275,2327.459,3566.319z"/>
			<path style="fill:#FFFFFF;" d="M2437.963,3515.637c-0.228-5.889-0.091-12.156,0.381-18.755     C2437.823,3503.451,2437.687,3509.719,2437.963,3515.637z"/>
			
				<ellipse transform="matrix(0.3546 -0.935 0.935 0.3546 -1690.3571 4443.0249)" style="fill:#FFABAB;" cx="2373.132" cy="3445.925" rx="128.749" ry="112.123"/>
			<path style="fill:#FC9090;" d="M2327.459,3566.319c-57.86-21.977-84.381-93.653-59.159-160.149     c4.585-12.049,10.513-23.096,17.543-32.953c16.962,24.201,44.258,47.696,89.136,60.073c43.934,12.125,81.89,3.157,111.91-11.561     c1.942,20.622-0.819,42.58-8.924,63.943C2452.743,3552.168,2385.381,3588.275,2327.459,3566.319z"/>
			
				<ellipse transform="matrix(0.3546 -0.935 0.935 0.3546 -1474.2451 4510.6245)" style="fill:#FFABAB;" cx="2530.136" cy="3323.178" rx="53.879" ry="46.921"/>
			
				<ellipse transform="matrix(0.3546 -0.935 0.935 0.3546 -1543.6718 4265.8696)" style="fill:#FFABAB;" cx="2318.172" cy="3251.103" rx="53.879" ry="46.921"/>
			
				<ellipse transform="matrix(0.3546 -0.935 0.935 0.3546 -1446.2415 4377.5615)" style="fill:#FFABAB;" cx="2447.778" cy="3236.37" rx="62.923" ry="54.797"/>
			
				<path style="fill:none;stroke:#512717;stroke-width:31.2696;stroke-linecap:round;stroke-linejoin:round;stroke-miterlimit:10;" d="     M2294.209,3615.971c-65.956-29.797-130.434-109.434-108.222-245.394c29.888-182.948,138.427-315.411,275.45-283     c144.528,34.186,200.853,162.286,127.738,344.066C2537.188,3560.891,2439.487,3681.603,2294.209,3615.971z"/>
		</g>
		<g>
			<path style="fill:#FFFEFF;" d="M1279.276,1329.725l288.579-246.987l333.477-285.34     c-192.496-190.23-568.524-394.4-681.217-322.741c-21.339,13.608-37.59,43.981-48.566,86.819     C1130.314,722.155,1163.141,1057.22,1279.276,1329.725z"/>
			<path style="fill:#FFE4D2;" d="M1279.276,1329.725l288.579-246.987c-81.251-190.243-283.663-624.804-396.306-521.263     C1130.314,722.155,1163.141,1057.22,1279.276,1329.725z"/>
			<path style="opacity:0.5;fill:#FFFFFF;" d="M1167.186,580.459c9.81-24.345,22.263-41.969,37.101-51.428     c108.508-69.064,460.778,117.485,658.722,301.177l38.323-32.811c-192.496-190.23-568.524-394.4-681.217-322.741     C1195.766,490.141,1178.025,527.659,1167.186,580.459z"/>
			<path style="fill:none;stroke:#512717;stroke-width:31.9364;stroke-linecap:round;stroke-miterlimit:10;" d="M1279.294,1329.723     c-147.125-345.114-160.579-790.543-59.199-855.036c112.733-71.715,488.754,132.501,681.221,322.72"/>
			<path style="fill:#9B4635;" d="M1295.097,1047.956c59.214-84.009,109.082-141.514,152.791-184.636     c38.342-37.718,71.911-64.313,102.944-87.789c-8.856-38.209-253.681-245.618-290.244-177.802     c-10.935,20.277-18.222,50.919-22.036,87.268C1226.583,797.59,1247.567,964.873,1295.097,1047.956z"/>
			<path style="fill:#873A2D;" d="M1238.552,684.997c15.356-20.125,38.932-44.09,60.958-39.129     c37.502,8.464,118.67,131.21,148.378,217.451c38.342-37.718,71.911-64.313,102.944-87.789     c-8.856-38.209-253.681-245.618-290.244-177.802C1249.653,618.006,1242.366,648.648,1238.552,684.997z"/>
			<path style="fill:none;stroke:#512717;stroke-width:31.9364;stroke-linecap:round;stroke-miterlimit:10;" d="M1260.575,597.722     c36.553-67.79,281.415,139.617,290.233,177.823c-66.378,50.213-144.548,114.748-255.695,272.394     C1232.188,938.065,1215.815,680.733,1260.575,597.722z"/>
		</g>
		<g>
			<g>
				
					<path style="fill:#F87B38;stroke:#512717;stroke-width:31.9364;stroke-linecap:round;stroke-linejoin:round;stroke-miterlimit:10;" d="      M1219.293,1334.59c-102.077,184.458-222.316,234.604-222.316,234.604s69.334,260.278,150.763,345.709      C1277.928,2051.489,1303.001,1183.325,1219.293,1334.59z"/>
				<path style="fill:#FFFEFF;" d="M2164.003,763.039l424.257,413.993l183.352,178.899      c148.39-274.143,206.214-626.277,164.173-780.815c-8.653-31.794-21.516-55.17-38.687-67.878      C2785.151,424.501,2378.522,591.743,2164.003,763.039z"/>
				<path style="fill:#FFE4D2;" d="M2588.26,1177.032l183.352,178.899c148.39-274.143,206.214-626.277,164.173-780.815      c-36.721-46.328-96.376-79.85-154.282,67.33C2721.447,794.861,2636.521,1037.288,2588.26,1177.032z"/>
				<path style="opacity:0.5;fill:#FFFFFF;" d="M2164.003,763.039l26.747,26.076c221.502-160.218,619.462-297.636,699.584-253.639      c65.136,35.767,52.963,265.818,20.808,449.409c54.3-226.711,51.075-429.554-14.043-477.646      C2785.151,424.501,2378.522,591.743,2164.003,763.039z"/>
				<path style="fill:none;stroke:#512717;stroke-width:31.9364;stroke-linecap:round;stroke-miterlimit:10;" d="M2771.59,1355.918      c178.912-330.495,226.202-774.33,125.509-848.71c-111.969-82.709-518.58,84.562-733.107,255.817"/>
				<path style="fill:#F87B38;" d="M2417.216,714.687c-81.549-38.104-178.832-63.89-295.674-76.829      c-865.568-95.853-976.472,553.348-996.168,892.624c-120.471,204.135-101.206,702.886,816.51,735.199      c904.27,20.523,1073.908-563.546,1082.869-596.84c-140.081-175.094-168.926-417.826-231.283-545.743"/>
				<path style="fill:#F87B38;" d="M1941.884,2265.681c310.188,7.063,533.874-57.026,694.373-145.675      c307.381-169.678,382.597-429.286,388.495-451.18c-140.101-175.099-168.944-417.789-231.3-545.739      c0,0-61.783-135.109-162.233-249.499c-59.595-67.865-213.998-158.88-213.998-158.88      c-81.555-38.105-178.861-63.906-295.668-76.823c-865.583-95.867-976.483,553.321-996.181,892.571      c-0.329,0.558-0.657,1.118-0.981,1.736C1005.001,1737.393,1026.727,2233.468,1941.884,2265.681z"/>
				<path style="fill:#F87B38;" d="M1088.43,1842.943c56.237,199.228,278.54,402.514,853.444,422.747      c310.207,7.064,533.904-57.012,694.399-145.681c195.423-107.865,296.993-252.099,346.568-348.488      c28.442-55.25,39.771-94.737,41.907-102.683c-140.081-175.116-168.93-417.794-231.288-545.725      c0,0-61.792-135.154-162.218-249.521c-59.627-67.896-214.018-158.875-214.018-158.875      c-81.58-38.104-178.859-63.921-295.656-76.829c-865.599-95.849-976.485,553.329-996.224,892.57      c-0.315,0.536-0.626,1.129-0.937,1.722C1080.017,1608.479,1055.124,1724.981,1088.43,1842.943z"/>
				<path style="fill:#F87B38;" d="M1088.43,1842.943c56.237,199.228,278.54,402.514,853.444,422.747      c310.207,7.064,533.904-57.012,694.399-145.681c195.423-107.865,296.993-252.099,346.568-348.488      c28.442-55.25,39.771-94.737,41.907-102.683c-140.081-175.116-168.93-417.794-231.288-545.725      c0,0-61.792-135.154-162.218-249.521c-59.627-67.896-214.018-158.875-214.018-158.875      c-81.58-38.104-178.859-63.921-295.656-76.829c-865.599-95.849-976.485,553.329-996.224,892.57      c-0.315,0.536-0.626,1.129-0.937,1.722C1080.017,1608.479,1055.124,1724.981,1088.43,1842.943z"/>
				<path style="fill:#EA5A1B;" d="M2945.64,1752.37c-48.851,94.984-145.683,229.501-329.582,331.007      c-150.15,82.95-333.793,129.786-545.808,139.206c-0.015,0-0.005,0-0.015,0c-41.2,1.831-84.068,2.258-127.407,1.269      c-618.088-21.751-775.41-255.111-814.13-392.278c0,0,144.808,349.973,846.512,344.186      C2745.363,2169.411,2945.64,1752.37,2945.64,1752.37z"/>
				<path style="fill:#EA5A1B;" d="M2945.64,1752.37c-48.851,94.984-145.683,229.501-329.582,331.007      c-150.15,82.95-333.793,129.786-545.808,139.206c-0.015,0-0.005,0-0.015,0c-41.2,1.831-84.068,2.258-127.407,1.269      c-618.088-21.751-775.41-255.111-814.13-392.278c0,0,144.808,349.973,846.512,344.186      C2745.363,2169.411,2945.64,1752.37,2945.64,1752.37z"/>
				<path style="fill:#8E381A;" d="M1503.415,2155.991c-146.817-47.403-238.227-113.341-294.968-179.039      c-3.36-14.353-5.157-28.88-5.385-43.425c41.03,42.051,102.255,90.849,191.223,133.597      C1418.711,2099.598,1454.817,2129.774,1503.415,2155.991z"/>
				<path style="fill:#8E381A;" d="M2434.034,2112.338c-6.569,18.302-14.792,37.097-24.617,56.329      c-102.836,30.433-216.223,48.455-339.172,53.918c-6.845,0.304-13.745,0.558-20.697,0.815      c64.38-12.18,107.388-32.834,136.52-60.62C2278.873,2151.693,2361.18,2134.109,2434.034,2112.338z"/>
				<path style="fill:#F9D3B7;" d="M2730.993,1974.432c-8.532,18.913-18.444,37.364-29.224,55.172      c-26.24,18.653-54.757,36.674-85.726,53.756c-150.135,82.953-333.759,129.802-545.799,139.224      c-41.228,1.832-84.087,2.27-127.43,1.264c-618.082-21.751-775.413-255.125-814.124-392.252c0,0,144.815,349.95,846.542,344.163      C2344.726,2172.693,2583.06,2075.141,2730.993,1974.432z"/>
				<path style="fill:#A82B26;" d="M1215.46,1949.578c14.63,53.773,37.448,103.801,61.674,144.196      c39.535,27.323,85.796,52.537,139.662,74.844c-40.175-51.685-62.428-100.881-72.009-146.829      C1297.596,2000.483,1254.612,1976.233,1215.46,1949.578z"/>
				<path style="fill:#FFFEFF;" d="M1941.884,2265.681c310.188,7.063,533.874-57.026,694.373-145.675      c91.849-108.936,175.254-262.788,96.545-411.123c-167.161-314.85-486.96,42.583-667.14,11.358      c-141.243-24.436-194.085-123.068-359.918-120.642c-110.874,1.635-117.539,62.346-221.405,83.696      c-124.047,25.504-265.216-143.05-359.949-151.103C1005.001,1737.393,1026.727,2233.468,1941.884,2265.681z"/>
				<path style="fill:#FFE4D2;" d="M2730.993,1974.432c-8.532,18.913-18.444,37.364-29.224,55.172      c-26.24,18.653-54.757,36.674-85.726,53.756c-150.135,82.953-333.759,129.802-545.799,139.224      c-41.228,1.832-84.087,2.27-127.43,1.264c-618.082-21.751-775.413-255.125-814.124-392.252c0,0,144.815,349.95,846.542,344.163      C2344.726,2172.693,2583.06,2075.141,2730.993,1974.432z"/>
				<path style="fill:#9B4635;" d="M1805.98,2241.813c-2.11,3.035-4.277,6.01-6.441,8.928c-1.323,1.796-2.644,3.535-3.965,5.216      c-239.59-24.097-405.978-84.37-518.113-161.953c-0.111-0.119-0.224-0.18-0.337-0.241      c-164.185-155.79-44.376-424.011,246.926-421.933c-92.547,47.615-168.799,117.259-169.25,282.325      c-0.299,119.95,121.18,233.476,395.749,279.523C1768.385,2236.676,1786.861,2239.406,1805.98,2241.813z"/>
				<path style="fill:#9B4635;" d="M2379.638,2220.326l-0.002,0.057c-122.255,31.527-266.877,49.217-437.75,45.3      c-41.853-1.483-81.779-3.938-119.952-7.254c-7.901-2.73-15.404-5.274-22.395-7.687c-22.279-7.74-38.435-12.193-47.924-15.55      c-5.283-1.897,111.184,17.712,282.935-9.22c157.893-25.405,196.472-97.364,210.259-199.677      c24.666-183.128-152.769-264.167-269.394-334.54C2400.096,1731.918,2563.572,1932.431,2379.638,2220.326z"/>
				<path style="fill:#873A2D;" d="M1503.415,2155.991c-146.817-47.403-238.227-113.341-294.968-179.039      c-3.36-14.353-5.157-28.88-5.385-43.425c41.03,42.051,102.255,90.849,191.223,133.597      C1418.711,2099.598,1454.817,2129.774,1503.415,2155.991z"/>
				<path style="fill:#873A2D;" d="M2434.034,2112.338c-6.569,18.302-14.792,37.097-24.617,56.329      c-102.836,30.433-216.223,48.455-339.172,53.918c-6.845,0.304-13.745,0.558-20.697,0.815      c64.38-12.18,107.388-32.834,136.52-60.62C2278.873,2151.693,2361.18,2134.109,2434.034,2112.338z"/>
				<path style="fill:#512717;" d="M2417.216,714.688c-183.682-53.863-376.52-80.887-567.552-62.891      c-21.733,1.426-49.026,6.289-70.679,9.151c-8.925,0.888-32.593,6.574-41.841,8.312      c-380.342,81.413-540.052,386.523-584.506,747.508c-4.823,38.094-8.644,76.378-11.335,114.813      c-0.182,2.536-0.981,4.958-2.177,7.018c-20.041,34.254-33.549,72.667-41.825,111.573c-2.904,15.116-5.669,34.265-7.034,49.575      c-0.235,9.543-1.207,20.49-1.157,30.027c0,0,0.483,20.025,0.483,20.025l0.116,5.007l0.476,4.983l0.945,9.966      c1.773,23.259,6.935,46.209,12.694,68.782c63.291,220.65,297.127,328.118,505.426,371.952      c201.258,42.405,411.56,51.416,615.674,23.669c314.369-41.794,615.282-197.985,755.59-494.326      c11.362-24.477,21.696-50.024,28.82-75.14l2.95,14.125c-66.173-77.561-108.078-172.073-138.946-268.221      c-31.654-95.025-48.249-192.669-79.867-287.497c50.787,85.724,76.027,184.426,111.431,276.549      c33.669,91.07,74.846,180.687,132.319,259.218c3.167,4.036,4.356,9.448,2.948,14.136c-8.055,28.34-18.735,54.413-30.7,80.306      c-108.507,233.659-331.184,395.726-574.326,467.931c-161.16,48.642-331.529,64.075-499.346,60.111      c-263.931-11.056-596.429-61.062-776.819-273.278c-8.499-9.005-18.501-24.415-26.168-34.26      c-15.874-23.947-30.592-49.066-41.483-75.695c-20.001-46.195-31.299-96.614-33.636-146.844      c-1.234-28.416,0.253-58.185,4.559-86.21c7.98-49.952,23.73-98.752,49.371-142.694c0.001-0.011-2.198,7.231-2.188,7.178      c7.178-156.286,31.578-313.8,92.01-459.483c45.982-109.667,114.587-211.778,206.826-287.839      c184.643-155.578,440.346-187.899,673.143-164.678C2197.786,627.308,2318.253,649.169,2417.216,714.688L2417.216,714.688z"/>
				<path style="fill:#9B4635;" d="M2530.399,775.481c65.346,56.722,141.877,128.851,245.795,297.275      c5.985-8.385,11.745-17.82,17.148-28.072c38.168-71.462,63.329-183.386,68.246-277.494c3.1-58.571-1.561-110.227-15.814-140.997      C2812.794,554.844,2542.445,738.165,2530.399,775.481z"/>
				<path style="fill:#873A2D;" d="M2530.399,775.481c65.346,56.722,141.877,128.851,245.795,297.275      c5.985-8.385,11.745-17.82,17.148-28.072c-6.573-67.795-58.286-142.598-77.556-200.284      c-39.99-119.677,52.585-190.811,86.231-177.621c19.94,7.825,48.117,72.201,59.571,100.411      c3.1-58.571-1.561-110.227-15.814-140.997C2812.794,554.844,2542.445,738.165,2530.399,775.481z"/>
				
					<path style="fill:none;stroke:#512717;stroke-width:31.9364;stroke-linecap:round;stroke-linejoin:round;stroke-miterlimit:10;" d="      M2845.774,626.203c-32.977-71.327-303.321,111.975-315.353,149.294c65.332,56.681,141.865,128.831,245.762,297.262      C2849.884,969.115,2886.155,713.545,2845.774,626.203z"/>
				<path style="fill:#FFF3E9;" d="M2259.588,1028.573c0,0-95.611-147.108-161.652-122.257      c-66.042,24.851-58.85,97.174-20.355,119.606C2133.495,1058.504,2259.588,1028.573,2259.588,1028.573z"/>
				<path style="fill:#FFF3E9;" d="M1382.423,1003.909c0,0,74.923-134.688,134.299-116.89      c59.376,17.798,57.434,81.614,25.05,103.594C1494.734,1022.539,1382.423,1003.909,1382.423,1003.909z"/>
				<g>
					<path style="fill:#512717;" d="M1598.556,1620.024c-2.033,39.057,39.71,75.827,72.098,98.322       c22.425,15.575,51.8,17.104,75.72,3.941c34.547-19.011,79.882-51.249,81.915-90.306       C1831.59,1568.542,1601.858,1556.585,1598.556,1620.024z"/>
					<path style="opacity:0.35;fill:#FFFFFF;" d="M1653.757,1609.122c-0.376,7.225,15.4,14.446,27.582,18.93       c8.435,3.104,19.303,3.67,28.014,1.458c12.582-3.195,29.022-8.739,29.398-15.964       C1739.363,1601.81,1654.367,1597.386,1653.757,1609.122z"/>
				</g>
				<g>
					<path style="fill:#F87B38;" d="M2445.582,732.053c-178.588-132.017-291.158-134.581-506.853-229.922       c-53.828-23.793-146.566-88.135-146.566-88.135s-26.432,102.902-13.143,164.513c-128.285-9.941-175.931,44.054-354.345,38.223       c30.077,52.502,95.289,123.665,194.044,121.144"/>
					<path style="fill:#512717;" d="M2445.582,732.053c-52.159-31.794-105.409-60.604-160.913-83.725       c-55.788-23.378-113.364-41.19-170.863-60.346c-61.738-20.184-123.099-42.737-182.643-69.02       c-24.935-11.319-48.817-25.527-71.883-39.903c-26.079-16.5-51.378-33.606-76.221-51.944       c-0.001,0.006,24.583-9.163,24.568-9.141c-9.172,38.687-16.043,79.423-16.321,119.238c0.064,13.06,0.88,26.005,3.323,37.929       c2.393,10.247-6.406,20.258-16.845,19.288c-58.909-5.645-114.394,7.991-172.064,21.375       c-59.07,13.692-120.93,18.868-181.568,16.886c0,0.001,14.377-23.896,14.377-23.896c16.539,22.96,32.791,46.018,52.6,66.288       c23.403,23.676,51.932,42.829,83.976,53.18c14.098,5.086,28.765,7.489,43.612,9.613       c-62.443,10.336-127.09-17.069-170.996-61.522c-15.142-15.307-28.17-32.807-37.249-52.42       c-5.173-10.455,3.127-23.403,14.726-23.161c58.64,1.841,116.4-2.938,173.689-16.167       c50.552-11.709,104.989-24.953,158.154-23.164c0-0.001,23.21,1.147,23.21,1.147l-16.843,19.286       c-10.193-57.923,0.665-115.378,13.282-171.844c2.181-10.903,15.8-15.834,24.573-9.155       c25.314,16.089,50.991,32.221,76.742,47.573c22.322,13.127,44.616,26.107,68.091,36.758       c31.084,13.471,62.346,26.748,93.909,39.085c70.564,28.236,143.272,51.839,212.646,83.504       C2322.709,639.19,2388.469,681.534,2445.582,732.053L2445.582,732.053z"/>
				</g>
				<g>
					<g>
						
							<ellipse transform="matrix(0.0941 -0.9956 0.9956 0.0941 409.5253 3508.3413)" style="fill:#512717;" cx="2132.652" cy="1529.13" rx="218.786" ry="189.457"/>
					</g>
					<g>
						
							<ellipse transform="matrix(0.0941 -0.9956 0.9956 0.0941 299.4468 3541.4766)" style="fill:#FFFFFF;" cx="2095.821" cy="1606.188" rx="75.215" ry="59.415"/>
					</g>
					<g style="opacity:0.2;">
						
							<ellipse transform="matrix(0.0942 -0.9956 0.9956 0.0942 548.5229 3539.4197)" style="fill:#FFFFFF;" cx="2219.23" cy="1468.288" rx="52.921" ry="34.211"/>
					</g>
				</g>
				<g>
					<g>
						
							<ellipse transform="matrix(0.0941 -0.9956 0.9956 0.0941 -205.9645 2757.3982)" style="fill:#512717;" cx="1412.252" cy="1491.88" rx="207.406" ry="179.603"/>
					</g>
					<g>
						
							<ellipse transform="matrix(0.0942 -0.9956 0.9956 0.0942 -262.8115 2839.8091)" style="fill:#FFFFFF;" cx="1429.115" cy="1564.324" rx="71.303" ry="56.324"/>
					</g>
					<g style="opacity:0.2;">
						
							<ellipse transform="matrix(0.0941 -0.9956 0.9956 0.0941 -196.1474 2624.4148)" style="fill:#FFFFFF;" cx="1344.082" cy="1419.993" rx="50.168" ry="32.432"/>
					</g>
				</g>
				<path style="fill:#512717;" d="M1680.662,1719.58c7.96,30.119,29.393,63.83,32.089,63.665c1.801-0.11,2.394-37.048,12.2-58.303"/>
			</g>
			<g>
				<path style="fill:#512717;" d="M1698.137,1869.379c0,0,126.119,45.528,284.709-27.403c0,0-1.641,192.546-142.627,202.563      C1717.273,2053.275,1736.695,1913.114,1698.137,1869.379z"/>
				<path style="fill:#F28475;" d="M1770.543,2026.15c16.1,13.165,38.243,20.593,69.64,18.376      c68.739-4.871,104.345-53.119,122.733-101.222c-17.729-10.458-39.885-12.903-60.464-4.74      c-10.383,4.119-19.175,10.45-26.108,18.247c-18.164-11.92-41.62-15.129-63.367-6.503      C1782.141,1962.539,1765.039,1994.704,1770.543,2026.15z"/>
				<path style="fill:#512717;" d="M1871.881,1930.027l4.464,26.783c0,0-10.18,15.055-14.886,34.181      C1861.459,1990.991,1843.538,1951.541,1871.881,1930.027z"/>
				
					<path style="fill:none;stroke:#512717;stroke-width:23.9523;stroke-linecap:round;stroke-linejoin:round;stroke-miterlimit:10;" d="      M1698.137,1869.379c0,0,126.119,45.528,284.709-27.403c0,0-1.641,192.546-142.627,202.563      C1717.273,2053.275,1736.695,1913.114,1698.137,1869.379z"/>
				<g>
					<path style="fill:#F9D6B6;" d="M1657.507,1829.543c0,0,14.425,24.538,40.63,39.836"/>
					<path style="fill:#512717;" d="M1657.507,1829.543c12.985,13.331,29.37,24.051,46.667,29.493       c15.312,5.255,8.182,27.898-7.387,23.417c-1.811-0.571-3.366-1.509-4.69-2.731       C1676.366,1865.849,1664.78,1848.612,1657.507,1829.543L1657.507,1829.543z"/>
				</g>
			</g>
		</g>
		<g>
			<g>
				<path style="fill:#FFB839;" d="M1552.607,2037.692c13.39,72.93,21.687,248.58-6.3,266.896      c-24.604,16.103-132.442,6.561-140.191-23.248c-7.749-29.809,14.602-110.603,1.569-179.642L1552.607,2037.692z"/>
				<path style="fill:#FF8A33;" d="M1406.115,2281.34c4.567,17.567,43.895,28.087,80.463,30.476      c12.996-0.981,23.753-3.355,29.671-7.228c26.512-17.351,20.462-175.877,8.369-254.534l-116.933,51.645      C1420.717,2170.736,1398.366,2251.531,1406.115,2281.34z"/>
				<path style="fill:none;stroke:#512717;stroke-width:31.9364;stroke-linecap:round;stroke-miterlimit:10;" d="M1552.607,2037.692      c13.39,72.93,21.687,248.58-6.3,266.896c-24.604,16.103-132.442,6.561-140.191-23.248      c-7.749-29.809,14.602-110.603,1.569-179.642"/>
				<path style="fill:#512717;" d="M1481.412,2310.154c9.047-33.392,14.003-68.245,17.122-102.728      c2.662-34.695,5.921-69.963-5.828-103.618c0,0,31.906-1.401,31.906-1.401c-4.663,18.08-6.241,35.662-7.241,53.28      c-1.485,51.099-4.094,107.608-4.327,158.853C1513.046,2314.539,1481.412,2310.154,1481.412,2310.154L1481.412,2310.154z"/>
				<path style="fill:#E5AC6E;" d="M591.935,1964.857c4.85-28.946,28.468-37.693,56.305-32.361l962.834,175.121      c16.587,3.11,26.884,17.474,24.434,32.094s-16.866,24.842-33.561,22.376l-967.331-148.284      C606.562,2009.77,587.084,1993.803,591.935,1964.857z"/>
				<path style="fill:#FFD399;" d="M591.935,1964.857c4.85-28.946,28.468-37.693,56.305-32.361l962.834,175.121      c16.587,3.11,26.884,17.474,24.434,32.094s-16.866,24.842-33.561,22.376l-967.331-148.284      C606.562,2009.77,587.084,1993.803,591.935,1964.857z"/>
				<path style="fill:#E5AC6E;" d="M1611.073,2107.616l-962.834-175.121c-18.881-3.616-35.8-0.729-46.26,10.519      c0.487,22.667,18.355,35.62,42.953,39.435l965.634,158.959c9.853,1.567,18.935-1.332,25.273-6.96      C1635.37,2121.788,1625.657,2110.351,1611.073,2107.616z"/>
				
					<path style="fill:none;stroke:#512717;stroke-width:31.9364;stroke-linecap:round;stroke-linejoin:round;stroke-miterlimit:10;" d="      M591.935,1964.857c4.85-28.946,28.468-37.693,56.305-32.361l962.834,175.121c16.587,3.11,26.884,17.474,24.434,32.094      s-16.866,24.842-33.561,22.376l-967.331-148.284C606.562,2009.77,587.084,1993.803,591.935,1964.857z"/>
				<path style="fill:#FFD399;" d="M656.783,1726.843c10.448-27.427,35.325-31.357,61.57-20.656l909.587,361.065      c15.651,6.312,22.922,22.42,17.645,36.273c-5.277,13.853-21.422,21.04-37.306,15.338l-919.274-335.636      C662.291,1773.755,646.335,1754.27,656.783,1726.843z"/>
				<path style="fill:#E5AC6E;" d="M1616.11,2102.832l-913.388-351.34c-21.314-7.972-35.549-22.292-34.697-41.723      c-4.603,4.143-8.45,9.745-11.242,17.074c-10.449,27.427,5.508,46.913,32.221,56.385l919.275,335.636      c15.883,5.702,32.028-1.485,37.306-15.338c0.733-1.924,1.2-3.893,1.46-5.871      C1639.378,2104.669,1627.626,2107.19,1616.11,2102.832z"/>
				<path style="fill:#FFFFFF;" d="M1627.94,2067.252l-909.587-361.065c-26.245-10.702-51.121-6.771-61.569,20.656      c-1.134,2.977-1.901,5.842-2.433,8.63c12.553-13.227,31.919-13.822,52.172-5.69l911.513,356.177      c12.905,5.124,20.153,16.909,19.426,28.657c3.584-2.871,6.423-6.628,8.122-11.091      C1650.862,2089.672,1643.591,2073.564,1627.94,2067.252z"/>
				
					<path style="fill:none;stroke:#512717;stroke-width:31.9364;stroke-linecap:round;stroke-linejoin:round;stroke-miterlimit:10;" d="      M656.783,1726.843c10.448-27.427,35.325-31.357,61.57-20.656l909.587,361.065c15.651,6.312,22.922,22.42,17.645,36.273      c-5.277,13.853-21.422,21.04-37.306,15.338l-919.274-335.636C662.291,1773.755,646.335,1754.27,656.783,1726.843z"/>
			</g>
			<g>
				<path style="fill:#FFE4D2;" d="M1215.362,2039.332c0,0,70.448,163.106-42.269,201.852      c-52.836,11.506-108.243,6.347-137.361-13.848c46.014,5.864,100.687-16.68,62.91-47.173      C989.385,2091.972,1091.881,2080.094,1215.362,2039.332z"/>
				<path style="fill:#512717;" d="M1230.021,2033c35.563,67.431,37.775,192.548-56.928,208.184      c34.368-18.445,50.987-51.087,49.38-89.432c-1.001-35.34-12.172-71.959-21.771-106.088      C1194.749,2026.991,1220.653,2015.914,1230.021,2033L1230.021,2033z"/>
				<path style="fill:#FFFEFF;" d="M1032.197,2251.531c0,0-64.394-7.746-87.332-116.022      c-14.818-69.949,7.644-172.603,39.117-213.853c48.148-63.105,118.079-81.025,180.727-74.009      c106.974,11.979,149.632,115.62,67.912,122.398c29.205,36.768,42.387,156.975-18.702,197.947      c-46.11,30.925-115.278,12.172-115.278,12.172C1022.334,2159.465,978.656,2198.211,1032.197,2251.531z"/>
				<path style="opacity:0.5;fill:#FFFFFF;" d="M968.818,2165.802c-14.818-69.949,10.08-175.69,40.366-217.818      c46.496-64.675,120.701-80.173,179.477-70.045c43.506,7.497,72.744,33.751,86.488,59.153      c2.842-33.569-39.728-81.527-110.44-89.446c-62.648-7.016-132.579,10.904-180.727,74.009      c-31.472,41.249-53.934,143.904-39.116,213.853c10.513,49.628,29.731,78.098,47.47,94.421      C982.995,2213.934,974.592,2193.059,968.818,2165.802z"/>
				<path style="fill:#512717;" d="M1032.197,2251.531c-36.983,2.631-68.01-27.822-84.211-58.267      c-38.733-76.308-28.458-178.685,4.615-255.356c23.349-49.64,70.63-87.683,123.175-102.826      c70.243-19.516,155.699-9.418,202.167,53.881c31.339,43.993,12.574,95.12-43.992,96.995      c-0.029,0.02,11.177-25.841,11.174-25.843c27.138,36.989,31.265,88.774,25.058,132.81      c-9.56,69.654-62.62,103.442-130.226,95.521c-14.085-1.579-27.964-4.085-41.316-8.28c27.395,4.824,56.068,4.026,81.556-4.043      c65.75-18.712,69.009-108.641,53.88-163.893c-3.167-12.132-8.151-24.15-13.961-32.25l-16.855-23.503l28.04-2.343      c29.792-3.401,32.62-21.353,16.325-43.67c-16.599-22.107-44.617-35.782-71.962-41.124      c-72.022-13.903-155.406,16.714-189.065,84.731c-19.531,41.923-29.035,90.151-29.478,136.388      c-0.518,31.079,6.754,61.534,18.151,89.881C987.001,2208.866,1004.218,2236.349,1032.197,2251.531L1032.197,2251.531z"/>
				<path style="fill:#512717;" d="M1065.183,1944.729c54.594-19.201,128.338-21.762,178.17,13.49      c0,0.001-21.464,23.651-21.464,23.651c-17.243-18.609-45.426-29.166-70.829-34.842      C1123.402,1941.056,1094.082,1939.769,1065.183,1944.729L1065.183,1944.729z"/>
			</g>
			<g>
				<path style="fill:#FFB839;" d="M1553.471,2037.692l-23.993-9.524c0,0-43.516,36.875-42.892,146.092      c0.704,123.284,85.476,495.249,40.779,649.691c-41.36,142.915-236.074,61-236.074,61s71.267-116.811,69.663-288.976      c-1.879-201.683-78.432-348.214-43.462-497.094c20.417-86.923,71.809-143.422,98.646-149.349      c38.277-8.454,36.281,20.515,36.281,20.515c21.252-10.652,42.973,0.15,44.81,17.63c0,0,22.269-9.206,41.489,2.576      C1560.204,2003.423,1553.471,2037.692,1553.471,2037.692z"/>
				<path style="fill:#FF8A33;" d="M1352.05,2706.192c-18.79,109.872-60.76,178.759-60.76,178.759s194.714,81.915,236.074-61      c9.087-31.399,12.822-71.791,13.001-117.255C1475.454,2719.715,1394.381,2711.943,1352.05,2706.192z"/>
				<path style="opacity:0.7;fill:#FFFFFF;" d="M1499.419,2305.158l-176.13,10.935c7.797,42.913,17.226,87.638,24.716,135.282      l167.5-29.416C1509.938,2380.805,1504.258,2341.17,1499.419,2305.158z"/>
				<path style="opacity:0.7;fill:#FFFFFF;" d="M1538.718,1990.251c-19.22-11.782-41.489-2.576-41.489-2.576      c-1.837-17.48-23.558-28.282-44.81-17.63c0,0,1.996-28.968-36.281-20.515c-9.991,2.207-23.386,11.432-37.318,26.617      c37.636-1.451,39.784,29.741,39.784,29.741c23.776-11.096,45.051,2.289,48.56,17.178c35.05-15.106,45.136,5.013,51.883,17.502      c0,0,12.097-29.044,22.665-27.459c7.592,1.139,7.816,15.06,7.343,22.829l4.416,1.753      C1553.471,2037.691,1560.204,2003.423,1538.718,1990.251z"/>
				<path style="fill:none;stroke:#512717;stroke-width:31.9364;stroke-linecap:round;stroke-miterlimit:10;" d="M1553.471,2037.692      l-23.993-9.524c0,0-43.516,36.875-42.892,146.092c0.704,123.284,85.476,495.249,40.779,649.691      c-41.36,142.915-236.074,61-236.074,61s71.267-116.811,69.663-288.976c-1.879-201.683-78.432-348.214-43.462-497.094      c20.417-86.923,71.809-143.422,98.646-149.349c38.277-8.454,36.281,20.515,36.281,20.515c21.252-10.652,42.973,0.15,44.81,17.63      c0,0,22.269-9.206,41.489,2.576C1560.204,2003.423,1553.471,2037.692,1553.471,2037.692z"/>
				<path style="fill:#512717;" d="M1463.229,1981.797c-42.067,33.239-68.18,81.155-77.242,133.608      c-0.846,3.594-2.006,10.764-2.352,14.429c-1.17,8.818-2.697,20.512-2.823,29.251c-1.656,29.394-0.089,59.651,3.901,88.779      c27.604,179.462,69.285,364.517,26.336,545.378c-9.49,40.222-23.36,79.377-39.926,117.223      c-3.539,8.082-12.959,11.766-21.041,8.228c-8.405-3.645-12.008-13.763-7.819-21.906c17.731-35.3,31.991-72.227,42.477-110.276      c44.526-165.65,11.771-339.553-15.504-505.588c-5.888-34.74-10.362-72.108-10.608-107.277      c0.463-9.014,0.358-22.173,1.086-31.085c0.485-4.737,1.756-18.652,2.238-23.335c6.815-49.905,24.627-99.193,57.94-137.805      c7.106-8.111,14.499-16.091,21.871-23.28C1457.766,1943.452,1479.544,1967.098,1463.229,1981.797L1463.229,1981.797z"/>
				<path style="fill:#512717;" d="M1508.04,1999.427c-43.03,34.911-60.861,94.173-64.852,148.61      c-7.646,87.799,15.245,174.902,25.471,261.726c15.714,127.687,24.956,257.391,6.965,385.463      c-6.061,39.6-15.115,79.205-31.245,117.67c-3.418,8.148-12.794,11.985-20.944,8.567c-8.855-3.639-12.499-14.547-7.651-22.789      c22.729-40.659,35.702-89.066,43.096-135.97c19.109-125.815,7.474-254.571-11.333-379.783      c-8.433-58.254-22.815-117.075-26.367-176.058c-4.729-70.027,0.41-148.036,44.115-206.974      c6.613-8.614,13.798-16.884,21.467-24.298C1502.913,1960.912,1524.651,1984.793,1508.04,1999.427L1508.04,1999.427z"/>
			</g>
		</g>
		<g>
			<path style="fill:#F38E0A;" d="M1631.35,3100.9"/>
			<path style="opacity:0.3;fill:#FFFFFF;" d="M1098.092,3328.714c-46.29-62.789-85.335-157.797-52.734-184.729     c43.779-36.167,104.943,61.084,164.984,123.834c98.938,103.403,169.277,116.236,166.054,168.048     C1374.414,3467.726,1230.302,3508.047,1098.092,3328.714z"/>
			<g>
				<g>
					<path style="fill:#FFB839;" d="M1805.531,2776.734l-26.784,177.839h-616.8l22.013-138.45l3.545-22.307       c0,0,31.021-58.285,109.294-75.474c22.6-4.984,49.17-6.53,80.085-2.239c6.742,0.933,13.592,2.318,20.574,4.051       c28.116,7.009,58.285,19.854,91.038,33.287c25.558,10.447,52.661,21.24,81.631,29.875       c27.263,8.155,56.126,14.391,86.854,16.577C1702.287,2803.145,1751.591,2797.681,1805.531,2776.734z"/>
					<path style="opacity:0.7;fill:#FFFFFF;" d="M1471.733,2795.496c-27.343,19.375-17.243,46.665-17.243,46.665       c-14.258,17.403-12.073,50.076-12.073,50.076l-20.041-3.118c15.644-19.854-6.05-55.033-6.05-55.033       c16.363-27.504-3.278-56.873-3.278-56.873c6.902-13.085-3.438-36.645-15.591-57.059c28.116,7.009,58.285,19.854,91.038,33.287       C1463.898,2770.711,1471.733,2795.496,1471.733,2795.496z"/>
					<path style="fill:#FF8A33;" d="M1669.134,2873.369l-264.027,70.837l31.208-54.074c0,0,34.939-24.599,41.575-36.645       c0,0,41.975-11.806,53.061-38.617c0,0,34.379-6.742,39.176-31.554c27.263,8.155,56.126,14.391,86.854,16.577L1669.134,2873.369       z"/>
					<path style="fill:#FF8A33;" d="M1271.641,2910.973l-87.68-94.849l3.545-22.307c0,0,31.021-58.285,109.294-75.474       c9.488,20.014,26.757,44.026,56.259,50.476c0,0-9.408,33.953,46.718,61.27c0,0-9.567,45.466,47.811,91.891       C1474.851,2944.02,1271.641,2910.973,1271.641,2910.973z"/>
					<path style="fill:#FFB839;" d="M870.14,2501.467"/>
					
						<path style="fill:none;stroke:#512717;stroke-width:23.9523;stroke-linecap:round;stroke-linejoin:round;stroke-miterlimit:10;" d="       M1187.514,2793.829c0,0,51.538-96.849,189.376-77.725c104.336,14.476,237.098,134.948,428.64,60.623l-26.791,177.838h-616.795       L1187.514,2793.829z"/>
					
						<path style="fill:none;stroke:#512717;stroke-width:23.9523;stroke-linecap:round;stroke-linejoin:round;stroke-miterlimit:10;" d="       M1228.444,2827.664c0,0,59.487-62.551,140.669-58.985c69.561,3.056,273.369,106.18,362.315,72.164"/>
					
						<path style="fill:none;stroke:#512717;stroke-width:23.9523;stroke-linecap:round;stroke-linejoin:round;stroke-miterlimit:10;" d="       M1228.444,2936.931c0,0,59.487-62.551,140.669-58.985c69.561,3.055,273.369,106.18,362.315,72.164"/>
					
						<path style="fill:none;stroke:#512717;stroke-width:23.9523;stroke-linecap:round;stroke-linejoin:round;stroke-miterlimit:10;" d="       M1228.444,2883.63c0,0,59.487-62.551,140.669-58.985c69.561,3.056,273.369,106.18,362.315,72.164"/>
				</g>
				<g>
					<path style="fill:#FFFFFF;" d="M1920.964,2883.316c1.978,18.009-12.355,38.893-35.265,49.472       c-22.917,10.591-46.806,7.38-57.525-6.589c-14.789,17.515-40.399,27.608-61.365,23.113       c-20.965-4.495-30.305-22.08-23.497-41.306c-22.905,6.76-44.799,0.156-51.528-16.791c-6.736-16.936,3.944-38.603,24.282-51.827       c-17.598-7.947-22.954-27.373-11.506-46.847c11.441-19.463,35.888-32.513,57.844-31.98       c-1.978-18.009,12.348-38.882,35.265-49.472c22.911-10.58,46.787-7.372,57.513,6.586c14.802-17.512,40.405-27.593,61.37-23.098       c20.965,4.495,30.312,22.068,23.516,41.297c22.898-6.749,44.78-0.147,51.516,16.789c6.729,16.947-3.944,38.602-24.282,51.827       c17.598,7.947,22.947,27.385,11.506,46.848C1967.36,2870.811,1942.92,2883.85,1920.964,2883.316z"/>
					<g>
						<path style="fill:none;stroke:#512717;stroke-width:23.9523;stroke-linecap:round;stroke-miterlimit:10;" d="        M1920.964,2883.316c1.978,18.009-12.355,38.893-35.265,49.472c-22.917,10.591-46.806,7.38-57.525-6.589        c-14.789,17.515-40.399,27.608-61.365,23.113c-20.965-4.495-30.305-22.08-23.497-41.306        c-22.905,6.76-44.799,0.156-51.528-16.791c-6.736-16.936,3.944-38.603,24.282-51.827        c-17.598-7.947-22.954-27.373-11.506-46.847c11.441-19.463,35.888-32.513,57.844-31.98        c-1.978-18.009,12.348-38.882,35.265-49.472c22.911-10.58,46.787-7.372,57.513,6.586        c14.802-17.512,40.405-27.593,61.37-23.098c20.965,4.495,30.312,22.068,23.516,41.297c22.898-6.749,44.78-0.147,51.516,16.789        c6.729,16.947-3.944,38.602-24.282,51.827c17.598,7.947,22.947,27.385,11.506,46.848        C1967.36,2870.811,1942.92,2883.85,1920.964,2883.316z"/>
						<path style="fill:#F34E6C;" d="M1858.464,2878.337c-29.835,12.216-75.864,7.685-86.508-28.555        c-9.968-47.158,36.462-85.541,78.702-93.223c40.318-9.167,79.744,21.325,59.808,63.75        c-14.021,25.822-46.105,42.59-74.802,33.2c-21.853-7.817-24.472-35.35-9.955-49.938c12.342-12.851,33.526-21.358,49.544-9.913        c5.529,4.323,7.953,12.541,6.121,19.095c-0.67,2.798-3.482,4.523-6.28,3.853c-2.679-0.637-4.366-3.25-3.931-5.907        c0.469-3.578-0.813-6.141-3.212-7.727c-9.934-5.542-24.431,2.211-30.829,10.374c-10.762,13.292-1.691,27.299,15.68,25.117        c16.429-1.727,33.458-12.555,40.283-26.767c7.07-14.091,1.438-30.051-14.209-34.629c-15.814-5.125-35.292,0.03-50.195,7.659        c-22.271,11.497-44.604,34.929-40.302,60.807c7.435,26.64,43.641,28.989,66.629,22.478        C1861.62,2866.227,1864.767,2875.797,1858.464,2878.337L1858.464,2878.337z"/>
					</g>
				</g>
				<g>
					<path style="fill:#FFFFFF;" d="M1748.411,2891.7c1.745,18.033-12.857,38.73-35.902,49.012       c-23.052,10.294-46.898,6.774-57.435-7.333c-15.015,17.322-40.754,27.083-61.659,22.317       c-20.905-4.766-30.017-22.471-22.96-41.607c-22.99,6.463-44.797-0.424-51.306-17.457c-6.516-17.021,4.443-38.548,24.951-51.508       c-17.494-8.174-22.598-27.668-10.899-46.993c11.692-19.313,36.306-32.046,58.253-31.228       c-1.745-18.033,12.85-38.719,35.903-49.012c23.046-10.282,46.878-6.765,57.423,7.33c15.027-17.319,40.759-27.068,61.664-22.302       c20.905,4.766,30.024,22.459,22.979,41.598c22.984-6.452,44.778,0.432,51.294,17.454c6.51,17.032-4.443,38.548-24.951,51.508       c17.494,8.174,22.591,27.679,10.899,46.993C1794.965,2879.796,1770.358,2892.517,1748.411,2891.7z"/>
					<g>
						<path style="fill:none;stroke:#512717;stroke-width:23.9523;stroke-linecap:round;stroke-miterlimit:10;" d="M1748.411,2891.7        c1.745,18.033-12.857,38.73-35.902,49.012c-23.052,10.294-46.898,6.774-57.435-7.333        c-15.015,17.322-40.754,27.083-61.659,22.317c-20.905-4.766-30.017-22.471-22.96-41.607        c-22.99,6.463-44.797-0.424-51.306-17.457c-6.516-17.021,4.443-38.548,24.951-51.508        c-17.494-8.174-22.598-27.668-10.899-46.993c11.692-19.313,36.306-32.046,58.253-31.228        c-1.745-18.033,12.85-38.719,35.903-49.012c23.046-10.282,46.878-6.765,57.423,7.33        c15.027-17.319,40.759-27.068,61.664-22.302c20.905,4.766,30.024,22.459,22.979,41.598        c22.984-6.452,44.778,0.432,51.294,17.454c6.51,17.032-4.443,38.548-24.951,51.508c17.494,8.174,22.591,27.679,10.899,46.993        C1794.965,2879.796,1770.358,2892.517,1748.411,2891.7z"/>
						<path style="fill:#F34E6C;" d="M1685.981,2885.912c-29.991,11.829-75.957,6.702-86.132-29.672        c-9.355-47.283,37.568-85.062,79.903-92.196c40.435-8.644,79.459,22.354,58.978,64.519        c-14.354,25.636-46.653,41.989-75.225,32.228c-21.751-8.098-24.01-35.666-9.308-50.063        c12.507-12.689,33.798-20.923,49.668-9.271c5.471,4.395,7.792,12.642,5.874,19.172c-0.707,2.789-3.54,4.479-6.33,3.772        c-2.672-0.672-4.321-3.307-3.854-5.958c0.515-3.571-0.732-6.151-3.112-7.767c-9.86-5.67-24.457,1.895-30.961,9.974        c-10.93,13.154-2.046,27.275,15.354,25.319c16.451-1.515,33.618-12.12,40.626-26.244c7.253-13.999,1.827-30.029-13.76-34.811        c-15.745-5.327-35.291-0.426-50.29,7.01c-22.418,11.207-45.05,34.348-41.086,60.281c7.092,26.732,43.262,29.55,66.332,23.339        C1689.29,2873.839,1692.319,2883.455,1685.981,2885.912L1685.981,2885.912z"/>
					</g>
				</g>
				<g>
					<path style="fill:#FFB839;" d="M1334.513,3111.803c-31.438,13.624-74.067,9.329-120.995-3.985       c-77.826-22.062-167.484-68.899-237.717-100.069c10.82-66.604,32.625-113.016,57.318-144.745       c30.431-39.157,65.232-55.999,89.188-60.891c3.925-0.814,7.777-1.501,11.544-2.034c42.438-6.344,75.086,2.046,105.698,14.702       c49.217,20.292,93.134,51.591,163.992,50.276C1464.048,2863.958,1452.192,3060.825,1334.513,3111.803z"/>
					<path style="opacity:0.7;fill:#FFFFFF;" d="M1137.69,3056.266c46.945-74.221,10.435-121.395,10.435-121.395       c20.541-42.381-13.69-76.358-13.69-76.358c16.351-19.443,9.461-41.767-0.584-58.435c42.438-6.344,75.086,2.046,105.698,14.702       c-26.108,13.301-23.45,45.989-23.45,45.989c-22.577,25.89-12.793,65.39-12.793,65.39       c-26.506,35.719,11.282,143.199,11.282,143.199L1137.69,3056.266z"/>
					<path style="fill:#FF8A33;" d="M1213.518,3107.818c-77.826-22.062-167.484-68.899-237.717-100.069       c10.82-66.604,32.625-113.016,57.318-144.745c8.12,15.548,22.081,29.748,45.947,29.012c0,0-9.927,56.073,43.507,56.84       c0,0,29.076,106.94,103.138,81.693C1266.12,3016.769,1242.686,3063.204,1213.518,3107.818z"/>
					<path style="fill:none;stroke:#512717;stroke-width:23.9523;stroke-linecap:round;stroke-miterlimit:10;" d="       M1122.311,2802.107c119.287-24.387,162.355,65.146,281.239,62.961c60.501-1.112,48.641,195.754-69.026,246.732       c-83.526,36.187-246.156-54.07-358.703-104.056C999.955,2859.029,1078.911,2810.979,1122.311,2802.107z"/>
					<path style="fill:none;stroke:#512717;stroke-width:23.9523;stroke-linecap:round;stroke-miterlimit:10;" d="       M1102.211,3080.976c15.683-32.785,39.123-63.311,73.935-76.477c88.572-33.5,154.244,39.527,208.561,24.632"/>
					<path style="fill:none;stroke:#512717;stroke-width:23.9523;stroke-linecap:round;stroke-miterlimit:10;" d="       M1057.381,3055.689c13.672-46.069,40.241-101.72,90.752-120.824c88.572-33.499,154.243,39.527,208.561,24.633"/>
					<path style="fill:none;stroke:#512717;stroke-width:23.9523;stroke-linecap:round;stroke-miterlimit:10;" d="       M1019.911,3031.075c7.201-43.514,31.018-141.684,101.647-168.397c88.572-33.5,154.244,39.527,208.561,24.633"/>
				</g>
				<g>
					<g>
						<path style="fill:#FFB839;" d="M1994.253,3090.095l-270.909,14.632l-359.813,19.4l35.112-185.603        c0,0,111.632,41.678,252.559-39.459c1.079-0.6,2.129-1.229,3.208-1.829c26.056-15.052,51.543-30.134,76.73-43.328        c25.037-13.133,49.774-24.407,74.481-31.963c52.593-16.041,105.005-15.142,159.697,21.019        C2058.9,2904.792,1994.253,3090.095,1994.253,3090.095z"/>
						<path style="opacity:0.7;fill:#FFFFFF;" d="M1854.556,3065.928c0,0-45.127,36.041-43.837,7.286        c3.988-89.593-37.9-115.71-37.9-115.71c15.772-39.849-20.06-55.141-20.06-55.141c4.678-19.19-8.935-36.791-21.619-48.455        c25.037-13.133,49.774-24.407,74.481-31.963c-8.636,34.782,5.097,59.309,5.097,59.309        c-13.313,56.311,12.803,56.311,12.803,56.311C1814.347,2981.491,1854.556,3065.928,1854.556,3065.928z"/>
						<path style="fill:#FF8A33;" d="M1723.344,2977.264c0,0-6.706,16.726,3.422,40.488c8.368,19.631,32.931,58.242,52.028,86.976        l-415.263,19.4l35.112-185.603c0,0,111.632,41.678,252.559-39.459c1.079-0.6,2.129-1.229,3.208-1.829        c-0.96,18.021,2.129,41.858,25.427,40.269C1679.837,2937.504,1682.421,2971.881,1723.344,2977.264z"/>
						<path style="fill:none;stroke:#512717;stroke-width:23.9523;stroke-linecap:round;stroke-miterlimit:10;" d="        M1398.652,2938.538c0,0,111.623,41.666,252.55-39.472c108.322-62.367,206.892-126.988,314.131-56.111        c93.564,61.84,28.926,247.137,28.926,247.137l-630.731,34.037L1398.652,2938.538z"/>
						<path style="fill:none;stroke:#512717;stroke-width:23.9523;stroke-linecap:round;stroke-miterlimit:10;" d="        M1514.442,2999.959c42.86,0,140.897-48.815,220.54-89.071c150.628-76.136,243.05-22.517,243.05-22.517"/>
					</g>
					<path style="fill:none;stroke:#512717;stroke-width:23.9523;stroke-linecap:round;stroke-miterlimit:10;" d="       M1514.442,3024.883c61.446,3.541,131.079-17.038,230.119-56.819c165.036-66.289,246.522-19.608,246.522-19.608"/>
				</g>
				<g>
					<path style="fill:#BF8C73;" d="M1789.824,2950.655c40.474,16.534,72.153,3.284,163.522,29.306       c93.482,26.624,246.539-139.631,148.02-144.74C1842.136,2821.776,1743.534,2931.745,1789.824,2950.655z"/>
					<path style="opacity:0.7;fill:#FFFFFF;" d="M2132.256,2867.707c-2.602-10.303-12.245-17.178-31.097-18.16       c-203.066-10.511-307.582,54.68-321.041,92.519c-14.428-31.786,88.894-118.901,321.241-106.839       C2128.001,2836.613,2136.246,2849.763,2132.256,2867.707z"/>
					<path style="fill:#F4C3B0;" d="M2005.302,2957.986c-17.345,6.095-32.382,7.408-44.691,3.902       c-49.4-14.069-82.322-16.699-106.359-18.618c-19.783-1.58-32.854-2.624-47.438-8.582c-0.115-0.047-0.207-0.09-0.277-0.123       c-0.313-1.668,1.01-8.825,13.126-19.982c14.688-13.525,38.423-26.474,66.835-36.461c38.825-13.648,106.2-28.824,206.69-23.612       c11.905,0.617,12.459,3.804,12.824,5.912c3.735,21.52-44.611,77.843-100.693,97.557       C2005.312,2957.982,2005.309,2957.983,2005.302,2957.986z"/>
					<path style="fill:#BF8C73;" d="M1989.453,2936.764c20.656-13.234,41.792-26.512,60.032-41.72       c4.95-4.11,12.048-10.644,13.461-14.938c-0.182,0.465,0.393,1.974,0.704,2.251c-35.702-6.839-182.73,13.32-209.41,36.947       c-0.186,0.27,0.175-0.222,0.094-1.096c-0.06-0.509-0.035-0.537-0.311-1.157c-0.728-1.412-1.182-1.572-1.165-1.61       c4.579,2.557,11.398,3.702,17.802,4.889c23.435,3.777,48.239,4.935,72.241,4.114c19.526,0.145,41.542-6.008,53.807-20.945       c-0.137,0.36,0.663,1.943,0.952,1.838c-1.334-0.823-3.965-1.119-6.066-1.212c-21.154-1.251-42.745,0.372-63.564,4.016       c-2.167,0.403-4.249-1.029-4.652-3.196c-0.385-2.078,0.927-4.081,2.944-4.597c12.366-3.135,24.658-5.358,37.249-6.66       c9.427-1.005,18.967-1.487,28.477-1.384c4.052,0.07,7.722,0.113,11.976,2.362c6.579,3.343,6.457,12.124,2.8,17       c-23.278,31.46-65.852,30.006-100.953,29.492c-19.711-0.991-38.688-1.207-58.09-7.77c-5.375-1.753-11.936-7.073-11.923-14.204       c0.194-19.996,29.818-27.368,44.399-32.817c48.799-14.374,98.079-22.034,148.773-24.569c9.675-0.32,19.463-0.243,29.257,0.9       c5.83,0.763,13.957,2.096,18.608,7.327c4.898,4.523,4.667,14.043,1.418,18.845c-12.447,18.539-33.004,28.098-51.328,38.756       c-11.066,5.946-22.318,11.317-33.881,16.24C1988.592,2945.781,1985.307,2939.27,1989.453,2936.764L1989.453,2936.764z"/>
					<path style="fill:none;stroke:#512717;stroke-width:23.9523;stroke-linecap:round;stroke-miterlimit:10;" d="       M1789.824,2950.655c40.474,16.534,72.153,3.284,163.522,29.306c93.482,26.624,246.539-139.631,148.02-144.74       C1842.136,2821.776,1743.534,2931.745,1789.824,2950.655z"/>
				</g>
				<g>
					<path style="fill:#BF8C73;" d="M1862.388,3029.783c40.349,21.748,72.178,6.865,163.372,42.191       c93.303,36.143,248.049-160.312,149.502-170.447C1915.958,2874.86,1816.24,3004.91,1862.388,3029.783z"/>
					<path style="opacity:0.7;fill:#FFFFFF;" d="M2206.451,2938.566c-3.218-11.325-12.735-19.103-30.353-20.929       c-206.935-21.275-312.239,57.248-322.883,102.468c-16.66-38.428,87.294-142.73,322.048-118.587       C2200.335,2904.1,2209.019,2918.745,2206.451,2938.566z"/>
					<path style="fill:#F4C3B0;" d="M2077.963,3047.266c-17.416,6.737-32.477,7.739-44.763,2.979       c-49.306-19.099-82.228-23.61-106.266-26.902c-19.784-2.71-32.854-4.5-47.393-12.337c-0.115-0.062-0.206-0.117-0.276-0.161       c-0.298-2.044,1.094-10.71,13.325-23.821c14.827-15.894,38.703-30.725,67.231-41.764       c38.984-15.085,106.555-30.898,207.074-20.56c11.908,1.224,12.432,5.128,12.778,7.711       c3.535,26.365-45.381,93.057-101.692,114.847C2077.974,3047.262,2077.97,3047.263,2077.963,3047.266z"/>
					<path style="fill:#BF8C73;" d="M2062.085,3021.735c20.518-14.684,41.361-29.62,59.137-46.46       c5.743-5.254,14.557-15.188,15.046-19.702c-34.042-10.663-187.546,9.838-209.008,37.137c0.099,0.398-0.199-0.547-0.341-0.71       c-0.651-0.984-0.391-0.374,0.347,0.039c15.433,7.809,33.956,9.447,51.328,11.774c20.782,1.615,42.795,4.234,62.96-1.218       c10.582-4.302,22.78-11.296,28.252-21.491c0.115-0.545,0.069-0.086,0.369,0.225c-2.883-1.881-9.002-1.72-13.107-2.187       c-18.564-1.198-37.681,0.099-55.92,3.448c-2.164,0.415-4.255-1.002-4.67-3.166c-0.398-2.074,0.9-4.083,2.911-4.613       c12.773-3.334,25.488-5.482,38.54-6.472c11.909-0.541,23.871-1.796,35.688,1.031c23.554,10.688-4.436,35.545-17.157,42.481       c-23.82,13.912-53.202,10.035-79.457,8.984c-20.142-2.25-41.322-3.306-59.833-13.434c-1.911-1.323-4.211-2.777-6.446-6.552       c-1.721-3.274-2.144-6.509-1.861-10.035c3.511-20.102,28.604-27.328,44.481-33.629       c50.224-15.785,101.153-23.419,153.718-24.027c18.128,0.251,54.825,1.44,45.865,29.003       c-10.614,22.055-33.747,34.78-52.99,47.697c-10.993,6.823-22.224,13.035-33.829,18.776       C2061.696,3030.802,2058.054,3024.456,2062.085,3021.735L2062.085,3021.735z"/>
					<path style="fill:none;stroke:#512717;stroke-width:31.9364;stroke-linecap:round;stroke-miterlimit:10;" d="       M1862.388,3029.783c40.349,21.748,72.178,6.865,163.372,42.191c93.303,36.143,248.049-160.312,149.502-170.447       C1915.958,2874.86,1816.24,3004.91,1862.388,3029.783z"/>
				</g>
				<g>
					<path style="fill:#FFFFFF;" d="M1378.722,3121.774c137.268,55.377,218.446-40.405,240.636-108.056       c22.19-67.651-43.001-149.777-145.607-183.432c-102.607-33.656-203.774-6.096-225.964,61.555       C1225.597,2959.493,1273.939,3079.502,1378.722,3121.774z"/>
					<path style="fill:#E2E2E2;" d="M1619.355,3013.714c-22.192,67.66-103.366,163.431-240.629,108.051       c-80.069-32.288-127.177-109.933-135.044-174.967c22.015,27.223,51.1,50.574,86.733,64.958       c137.263,55.381,218.434-40.413,240.629-108.051c1.609-4.902,2.76-9.893,3.458-14.95       C1614.156,2926.394,1632.8,2972.705,1619.355,3013.714z"/>
					<path style="fill:none;stroke:#512717;stroke-width:23.9523;stroke-linecap:round;stroke-miterlimit:10;" d="       M1378.722,3121.774c137.268,55.377,218.446-40.405,240.636-108.056c22.19-67.651-43.001-149.777-145.607-183.432       c-102.607-33.656-203.774-6.096-225.964,61.555C1225.597,2959.493,1273.939,3079.502,1378.722,3121.774z"/>
					
						<ellipse transform="matrix(0.3117 -0.9502 0.9502 0.3117 -1806.1913 3434.4402)" style="fill:#FFA64D;" cx="1467.393" cy="2963.873" rx="70.965" ry="107.633"/>
					<path style="fill:#FF8745;" d="M1569.677,2997.428c-12.234,37.245-67.923,52.415-124.404,33.872       c-47.388-15.537-80.252-49.844-82.408-82.474c14.504,15.402,35.256,28.626,59.958,36.709       c56.477,18.52,112.189,3.346,124.401-33.895c1.966-6.009,2.688-12.213,2.256-18.487       C1568.198,2952.98,1576.547,2976.468,1569.677,2997.428z"/>
					
						<ellipse transform="matrix(0.3117 -0.9502 0.9502 0.3117 -1768.663 3411.1421)" style="opacity:0.7;fill:#FFFFFF;" cx="1470.081" cy="2926.324" rx="18.351" ry="27.833"/>
					
						<ellipse transform="matrix(0.3117 -0.9502 0.9502 0.3117 -1818.9305 3394.667)" style="fill:none;stroke:#512717;stroke-width:23.9523;stroke-linecap:round;stroke-miterlimit:10;" cx="1433.573" cy="2952.78" rx="128.915" ry="195.524"/>
				</g>
			</g>
			<g>
				<path style="fill:#FFFFFF;" d="M2160.766,2824.498c38.049,16.319,59.317,34.549,59.317,53.785      c0,7.455-3.191,14.801-9.361,21.893c-51.483,59.42-308.349,104.617-617.592,104.617c-309.285,0-566.321-45.197-617.634-104.654      c-6.17-7.093-9.361-14.403-9.361-21.857c0-9.617,5.316-18.982,15.388-27.982c10.071-9.001-24.743,5.575-5.721-2.584      c0,0-40.911-5.3-23.062,66.929c19.927,80.638,186.723,185.095,640.364,185.095c463.802,0,631.658-97.652,645.957-178.353      C2254.531,2834.085,2160.766,2824.498,2160.766,2824.498z"/>
				<path style="fill:#512717;" d="M2160.765,2824.498c28.417,7.837,70.981,24.441,66.51,61.075      c-7.735,32.24-46.433,47.894-73.452,59.805c-113.371,42.799-235.25,54.943-355.062,64.422      c-209.504,12.785-421.746,10.663-628.672-27.448c-29.573-5.799-59.001-12.627-88.08-21.144      c-34.607-10.464-70.054-22.575-98.655-45.681c-13.687-11.132-26.932-30.552-17.427-48.349      c3.691-7.231,9.463-12.567,15.595-16.877c-17.178,18.778-16.223,37.593,4.934,52.525      c29.746,20.838,65.458,30.421,100.578,40.422c173.305,41.551,353.65,49.307,531.552,49.455      c148.655-1.87,297.834-11.198,443.287-41.682c40.089-9.341,134.19-29.883,149.809-68.808      c3.203-10.079-4.424-22.405-15.033-31.814C2186.145,2840.697,2173.489,2832.626,2160.765,2824.498L2160.765,2824.498z"/>
				<g>
					<path style="fill:#DB2626;" d="M1593.124,3274.292c65.781,0,123.661,15.52,172.672,39.69       c137.885,68.002,191.818,227.58,179.934,265.901c-17.04,54.946-186.399,105.023-352.605,105.023       s-335.565-50.077-352.605-105.023c-11.885-38.322,42.049-197.899,179.934-265.901       C1469.463,3289.811,1527.343,3274.292,1593.124,3274.292z"/>
					
						<path style="fill:none;stroke:#512717;stroke-width:31.9364;stroke-linecap:round;stroke-linejoin:round;stroke-miterlimit:10;" d="       M1593.124,3274.292c65.781,0,123.661,15.52,172.672,39.69c137.885,68.002,191.818,227.58,179.934,265.901       c-17.04,54.946-186.399,105.023-352.605,105.023s-335.565-50.077-352.605-105.023       c-11.885-38.322,42.049-197.899,179.934-265.901C1469.463,3289.811,1527.343,3274.292,1593.124,3274.292z"/>
					<path style="fill:#FF3333;" d="M2272.829,2890.459c0,0,45.241,718.512-679.697,718.512s-679.743-718.512-679.743-718.512       c0,9.503,3.46,18.821,10.148,27.862c55.63,75.789,334.29,133.402,669.595,133.402c335.259,0,613.734-57.613,669.549-133.356       C2269.369,2909.326,2272.829,2899.961,2272.829,2890.459z"/>
					<path style="fill:#FF3333;" d="M2272.829,2890.459c0,0,45.241,718.512-679.697,718.512s-679.743-718.512-679.743-718.512       c0,9.503,3.46,18.821,10.148,27.862c55.63,75.789,334.29,133.402,669.595,133.402c335.259,0,613.734-57.613,669.549-133.356       C2269.369,2909.326,2272.829,2899.961,2272.829,2890.459z"/>
					<path style="fill:#DB2626;" d="M2234.135,2985.853c-9.71,105.916-44.979,281.015-167.603,411.313       c-109.95,116.875-269.235,176.099-473.392,176.099c-42.195,0-82.499-2.535-120.803-7.568       c147.112-19.384,265.416-75.823,352.626-168.531c97.42-103.525,139.687-235.286,157.821-338.168       C2086.166,3042.362,2175.519,3018.195,2234.135,2985.853z"/>
					<path style="fill:#FFFFFF;" d="M2267.253,3081.848c-1.295,2.398-2.83,4.796-4.557,7.146       c-55.825,75.729-334.329,133.377-669.568,133.377c-335.288,0-613.984-57.648-669.57-133.425       c-1.774-2.398-3.309-4.796-4.604-7.242c-8.729-73.811-5.563-123.929-5.563-123.929c0,9.496,3.453,18.801,10.167,27.865       c55.586,75.777,334.281,133.377,669.57,133.377c335.24,0,613.743-57.6,669.568-133.329c6.667-9.064,10.12-18.416,10.12-27.913       C2272.817,2957.776,2275.982,3007.99,2267.253,3081.848z"/>
					<path style="fill:#EFD9CA;" d="M1945.073,3199.064c114.316-16.462,206.58-40.691,263.746-69.599       c11.187-41.935,18.095-81.557,22.335-115.996c-49.188,31.676-139.079,58.683-254.628,77.449       C1969.123,3125.248,1958.962,3161.9,1945.073,3199.064z"/>
					<path style="fill:#512717;" d="M1970.33,3024.623c66.687-14.25,279.408-60.698,290.526-134.149       c-0.056-0.085,23.927-0.753,23.928-0.782c3.581,142.466-25.621,286.936-92.685,413.223       c-93.859,177.042-261.096,280.381-457.17,307.878c-186.15,25.287-389.741,7.436-550.207-97.341       c-121.196-78.208-204.115-205.567-245.212-342.196c-27.503-91.248-41.111-186.15-38.086-281.563       c0.001,0,23.929,0.751,23.929,0.751c1.153,16.482,15.076,29.547,28.302,39.76c49.194,34.561,108.734,52.462,166.956,68.079       c79.63,20.574,161.21,33.92,242.919,44.006c-82.628-4.306-165.12-12.498-246.443-28.781       c-60.998-13.483-214.675-45.506-215.688-123.062c0.001-0.001,23.931,0.75,23.931,0.75       c-2.866,91.763,10.48,185.123,37.073,273.021c66.58,222.727,228.905,374.954,458.427,417.06       c154.681,28.334,330.392,21.071,476.659-39.45c236.204-96.388,349.275-338.043,362.548-581.868       c1.291-22.936,1.881-46.408,0.842-68.762l23.929-0.752C2284.519,2984.924,2043.42,3016.09,1970.33,3024.623L1970.33,3024.623z"/>
					<path style="opacity:0.3;fill:#FFFFFF;" d="M1115.244,3330.769c-53.594-72.696-98.8-182.696-61.056-213.878       c50.687-41.874,121.503,70.722,191.018,143.374c114.549,119.719,195.988,134.578,192.256,194.565       C1435.168,3491.716,1268.317,3538.4,1115.244,3330.769z"/>
				</g>
			</g>
		</g>
		<g>
			<path style="fill:#F87B38;" d="M2216.661,2358.598c3.421,340.029-154.516,448.284-185.001,603.522     c-21.839,111.209,70.461,193.086,183.453,142.235c130.835-58.881,260.561-325.652,240.836-546.859L2216.661,2358.598z"/>
			<path style="fill:#EA5A1B;" d="M2141.013,3053.196c-44.978,6.601-83.096-15.161-111.555-41.282     c9.854,83.844,90.399,135.31,185.656,92.441c130.835-58.882,260.561-325.652,240.836-546.859     C2457.947,2585.675,2366.48,3020.105,2141.013,3053.196z"/>
			<path style="fill:#FFFEFF;" d="M2105.41,2790.888c-32.402,60.423-62.209,112.465-73.749,171.231     c-21.839,111.209,70.462,193.086,183.453,142.235c47.992-21.599,95.825-71.19,136.197-136.224     C2337.05,2869.33,2187.763,2807.468,2105.41,2790.888z"/>
			<path style="fill:#FFE4D2;" d="M2326.614,2911.2c-47.342,72.668-108.664,130.705-185.601,141.997     c-44.978,6.601-83.096-15.161-111.555-41.282c9.854,83.844,90.399,135.31,185.656,92.441     c47.992-21.599,95.825-71.19,136.197-136.224C2348.336,2947.523,2339.507,2928.518,2326.614,2911.2z"/>
			<path style="opacity:0.3;fill:#FFFFFF;" d="M2031.661,2962.119c-9.826,50.038,3.506,94.085,31.383,122.828     c-4.735-57.117,7.187-120.179,43.171-199.997c63.464-140.768,153.89-278.141,110.447-526.353     C2220.083,2698.626,2062.146,2806.881,2031.661,2962.119z"/>
			<path style="fill:#512717;" d="M2216.661,2358.597c15.543,130.71-9.054,266.655-67.845,384.677     c-27.316,58.333-62.202,114.144-84.553,173.683c-20.984,53.05-28.321,118.946,18.357,159.602     c43.498,39.183,112.358,25.176,156.302-8c98.793-75.267,154.703-203.474,187.803-320.568     c17.106-61.598,27.277-125.123,29.224-190.497c10.009,48.225,10.427,98.623,4.856,147.632     c-14.419,141.002-108.004,361.954-246.213,420.039c-42.059,17.661-93.434,19.975-134.327-2.829     c-60.093-31.686-81.883-107.172-65.996-169.28c18.208-82.012,68.488-150.817,104.497-224.489     c28.918-56.965,51.529-116.94,67.269-178.792C2202.108,2487.23,2210.272,2423.115,2216.661,2358.597L2216.661,2358.597z"/>
			<path style="fill:#512717;" d="M2123.657,2945.702l-51.597,140.564c-3.057,8.326-12.284,12.599-20.61,9.542     c-9.534-3.367-13.517-15.223-8.026-23.682C2043.424,3072.126,2123.657,2945.702,2123.657,2945.702L2123.657,2945.702z"/>
			<path style="fill:#512717;" d="M2218.07,3003.9l-84.651,123.499c-5.015,7.316-15.01,9.181-22.327,4.166     c-8.41-5.614-9.346-18.086-1.939-24.929C2109.153,3106.636,2218.07,3003.9,2218.07,3003.9L2218.07,3003.9z"/>
		</g>
	</g>
</g>
</svg>